<?xml version="1.0" encoding="UTF-8" standalone="no"?>
<!-- Created with Inkscape (http://www.inkscape.org/) -->

<svg
   xmlns:dc="http://purl.org/dc/elements/1.1/"
   xmlns:cc="http://creativecommons.org/ns#"
   xmlns:rdf="http://www.w3.org/1999/02/22-rdf-syntax-ns#"
   xmlns:svg="http://www.w3.org/2000/svg"
   xmlns="http://www.w3.org/2000/svg"
   xmlns:sodipodi="http://sodipodi.sourceforge.net/DTD/sodipodi-0.dtd"
   xmlns:inkscape="http://www.inkscape.org/namespaces/inkscape"
   width="410mm"
   height="290mm"
   viewBox="0 0 1452.7559 1027.559"
   id="svg2"
   version="1.1"
   inkscape:version="0.91 r13725"
   sodipodi:docname="Advent4.svg">
  <defs
     id="defs4" />
  <sodipodi:namedview
     id="base"
     pagecolor="#ffffff"
     bordercolor="#666666"
     borderopacity="1.0"
     inkscape:pageopacity="0.0"
     inkscape:pageshadow="2"
     inkscape:zoom="1.9171415"
     inkscape:cx="177.16535"
     inkscape:cy="294.09451"
     inkscape:document-units="mm"
     inkscape:current-layer="layer4"
     showgrid="true"
     inkscape:window-width="2560"
     inkscape:window-height="1315"
     inkscape:window-x="0"
     inkscape:window-y="1"
     inkscape:window-maximized="1"
     inkscape:object-paths="true"
     inkscape:snap-intersection-paths="true"
     inkscape:object-nodes="true"
     inkscape:snap-grids="true"
     showguides="false"
     inkscape:snap-object-midpoints="true">
    <inkscape:grid
       type="xygrid"
       id="grid4136"
       units="mm"
       spacingx="1.7716536"
       spacingy="1.7716534"
       dotted="true" />
  </sodipodi:namedview>
  <metadata
     id="metadata7">
    <rdf:RDF>
      <cc:Work
         rdf:about="">
        <dc:format>image/svg+xml</dc:format>
        <dc:type
           rdf:resource="http://purl.org/dc/dcmitype/StillImage" />
        <dc:title></dc:title>
      </cc:Work>
    </rdf:RDF>
  </metadata>
  <g
     inkscape:label="Frame"
     inkscape:groupmode="layer"
     id="layer1"
     transform="translate(0,-24.803154)"
     sodipodi:insensitive="true">
    <flowRoot
       xml:space="preserve"
       id="flowRoot5933"
       style="font-style:normal;font-variant:normal;font-weight:bold;font-stretch:normal;font-size:24px;line-height:125%;font-family:'DIN Alternate';-inkscape-font-specification:'DIN Alternate Bold';text-align:center;letter-spacing:0px;word-spacing:0px;text-anchor:middle;fill:#000000;fill-opacity:1;stroke:none;stroke-width:1px;stroke-linecap:butt;stroke-linejoin:miter;stroke-opacity:1"><flowRegion
         id="flowRegion5935"><rect
           id="rect5937"
           width="80.093185"
           height="88.284531"
           x="34.58569"
           y="602.51917"
           style="font-style:normal;font-variant:normal;font-weight:bold;font-stretch:normal;font-family:'DIN Alternate';-inkscape-font-specification:'DIN Alternate Bold'" /></flowRegion><flowPara
         id="flowPara5939" /></flowRoot>    <flowRoot
       xml:space="preserve"
       id="flowRoot7942"
       style="font-style:normal;font-variant:normal;font-weight:500;font-stretch:normal;font-size:15px;line-height:125%;font-family:Futura;-inkscape-font-specification:'Futura Medium';text-align:center;letter-spacing:0px;word-spacing:0px;text-anchor:middle;fill:#000000;fill-opacity:1;stroke:none;stroke-width:1px;stroke-linecap:butt;stroke-linejoin:miter;stroke-opacity:1"><flowRegion
         id="flowRegion7944"><rect
           id="rect7946"
           width="17.716536"
           height="53.149612"
           x="88.58268"
           y="336.61411" /></flowRegion><flowPara
         id="flowPara7948" /></flowRoot>    <path
       sodipodi:nodetypes="cccccccccccccccccccc"
       inkscape:connector-curvature="0"
       id="path5304"
       d="m 33.661417,1041.7322 0,10.6299 -33.6614120000001,0 0,-577.55894 L 0,464.17317 l 35.433071,0 0,10.62992 283.464569,0 0,-10.62992 35.43307,0 0,10.62992 0,5e-5 0,566.92906 0,0 0,0 0,0 0,10.6299 -35.43307,0 0,-10.6299 z"
       style="fill:none;fill-rule:evenodd;stroke:#000000;stroke-width:0.70866144;stroke-linecap:butt;stroke-linejoin:miter;stroke-miterlimit:4;stroke-dasharray:none;stroke-opacity:1" />
  </g>
  <g
     inkscape:groupmode="layer"
     id="layer4"
     inkscape:label="Cut"
     style="display:inline"
     sodipodi:insensitive="true">
    <path
       transform="matrix(0,-1,1,0,0,0)"
       style="display:inline;fill:none;fill-opacity:1;stroke:#009900;stroke-width:0.70866144;stroke-linejoin:miter;stroke-miterlimit:4;stroke-dasharray:none;stroke-dashoffset:0;stroke-opacity:1"
       d="m -668.72824,91.594498 a 5.6692863,5.6692863 0 0 1 -5.66928,5.669286 5.6692863,5.6692863 0 0 1 -5.66929,-5.669286 5.6692863,5.6692863 0 0 1 5.66929,-5.669287 5.6692863,5.6692863 0 0 1 5.66928,5.669287 z"
       id="path5340"
       inkscape:connector-curvature="0" />
    <path
       transform="matrix(0,-1,1,0,0,0)"
       style="display:inline;fill:none;fill-opacity:1;stroke:#009900;stroke-width:0.70866144;stroke-linejoin:miter;stroke-miterlimit:4;stroke-dasharray:none;stroke-dashoffset:0;stroke-opacity:1"
       d="m -488.72827,145.5945 a 5.6692863,5.6692863 0 0 1 -5.66928,5.66928 5.6692863,5.6692863 0 0 1 -5.66929,-5.66928 5.6692863,5.6692863 0 0 1 5.66929,-5.66929 5.6692863,5.6692863 0 0 1 5.66928,5.66929 z"
       id="circle5342"
       inkscape:connector-curvature="0" />
    <path
       transform="matrix(0,-1,1,0,0,0)"
       style="display:inline;fill:none;fill-opacity:1;stroke:#009900;stroke-width:0.70866144;stroke-linejoin:miter;stroke-miterlimit:4;stroke-dasharray:none;stroke-dashoffset:0;stroke-opacity:1"
       d="m -488.72827,244.59448 a 5.6692863,5.6692863 0 0 1 -5.66928,5.66929 5.6692863,5.6692863 0 0 1 -5.66929,-5.66929 5.6692863,5.6692863 0 0 1 5.66929,-5.66928 5.6692863,5.6692863 0 0 1 5.66928,5.66928 z"
       id="circle5344"
       inkscape:connector-curvature="0" />
    <path
       transform="matrix(0,-1,1,0,0,0)"
       style="display:inline;fill:none;fill-opacity:1;stroke:#009900;stroke-width:0.70866144;stroke-linejoin:miter;stroke-miterlimit:4;stroke-dasharray:none;stroke-dashoffset:0;stroke-opacity:1"
       d="m -673.22824,262.59448 a 5.6692863,5.6692863 0 0 1 -5.66928,5.66929 5.6692863,5.6692863 0 0 1 -5.66929,-5.66929 5.6692863,5.6692863 0 0 1 5.66929,-5.66928 5.6692863,5.6692863 0 0 1 5.66928,5.66928 z"
       id="circle5346"
       inkscape:connector-curvature="0" />
    <g
       style="display:inline"
       id="g5417"
       transform="translate(56.692912,47.83457)">
      <path
         transform="matrix(0,-1,1,0,0,0)"
         style="display:inline;fill:none;fill-opacity:1;stroke:#009900;stroke-width:0.70866144;stroke-linejoin:miter;stroke-miterlimit:4;stroke-dasharray:none;stroke-dashoffset:0;stroke-opacity:1"
         d="m -871.29916,155.90552 a 5.6692863,5.6692863 0 0 1 -5.66928,5.66928 5.6692863,5.6692863 0 0 1 -5.66929,-5.66928 5.6692863,5.6692863 0 0 1 5.66929,-5.66929 5.6692863,5.6692863 0 0 1 5.66928,5.66929 z"
         id="circle5411"
         inkscape:connector-curvature="0" />
      <path
         transform="matrix(0,-1,1,0,0,0)"
         style="display:inline;fill:none;fill-opacity:1;stroke:#009900;stroke-width:0.70866144;stroke-linejoin:miter;stroke-miterlimit:4;stroke-dasharray:none;stroke-dashoffset:0;stroke-opacity:1"
         d="m -871.29916,226.77165 a 5.6692863,5.6692863 0 0 1 -5.66928,5.66929 5.6692863,5.6692863 0 0 1 -5.66929,-5.66929 5.6692863,5.6692863 0 0 1 5.66929,-5.66928 5.6692863,5.6692863 0 0 1 5.66928,5.66928 z"
         id="circle5413"
         inkscape:connector-curvature="0" />
    </g>
  </g>
  <g
     inkscape:groupmode="layer"
     id="layer3"
     inkscape:label="Etch"
     style="display:inline"
     sodipodi:insensitive="true">
    <rect
       style="fill:none;fill-opacity:1;stroke:#ff794b;stroke-width:0.70866144;stroke-linejoin:miter;stroke-miterlimit:4;stroke-dasharray:none;stroke-dashoffset:0;stroke-opacity:1"
       id="rect5348"
       width="243.07086"
       height="188.85826"
       x="-728.50378"
       y="82.736221"
       rx="5.4929101e-14"
       ry="5.4929101e-14"
       transform="matrix(0,-1,1,0,0,0)" />
    <rect
       style="fill:none;fill-opacity:1;stroke:#ff794b;stroke-width:0.70866144;stroke-linejoin:miter;stroke-miterlimit:4;stroke-dasharray:none;stroke-dashoffset:0;stroke-opacity:1"
       id="rect5415"
       width="60.236221"
       height="134.64568"
       x="217.91339"
       y="857.48022"
       rx="5.4929101e-14"
       ry="5.4929101e-14" />
  </g>
</svg>
