<?xml version="1.0" encoding="UTF-8" standalone="no"?>
<!-- Created with Inkscape (http://www.inkscape.org/) -->

<svg
   xmlns:dc="http://purl.org/dc/elements/1.1/"
   xmlns:cc="http://creativecommons.org/ns#"
   xmlns:rdf="http://www.w3.org/1999/02/22-rdf-syntax-ns#"
   xmlns:svg="http://www.w3.org/2000/svg"
   xmlns="http://www.w3.org/2000/svg"
   xmlns:sodipodi="http://sodipodi.sourceforge.net/DTD/sodipodi-0.dtd"
   xmlns:inkscape="http://www.inkscape.org/namespaces/inkscape"
   width="410mm"
   height="290mm"
   viewBox="0 0 1452.7559 1027.559"
   id="svg2"
   version="1.1"
   inkscape:version="0.91 r13725"
   sodipodi:docname="miniusb_holder.svg">
  <defs
     id="defs4" />
  <sodipodi:namedview
     id="base"
     pagecolor="#ffffff"
     bordercolor="#666666"
     borderopacity="1.0"
     inkscape:pageopacity="0.0"
     inkscape:pageshadow="2"
     inkscape:zoom="9.3098202"
     inkscape:cx="85.03937"
     inkscape:cy="53.149414"
     inkscape:document-units="mm"
     inkscape:current-layer="layer1"
     showgrid="true"
     inkscape:window-width="2560"
     inkscape:window-height="1315"
     inkscape:window-x="0"
     inkscape:window-y="1"
     inkscape:window-maximized="1"
     inkscape:object-paths="true"
     inkscape:snap-intersection-paths="true"
     inkscape:object-nodes="true"
     inkscape:snap-grids="true"
     inkscape:snap-bbox="true"
     inkscape:snap-smooth-nodes="true"
     inkscape:snap-midpoints="true">
    <inkscape:grid
       type="xygrid"
       id="grid4136"
       units="mm"
       spacingx="3.5433072"
       spacingy="3.5433071"
       dotted="true" />
  </sodipodi:namedview>
  <metadata
     id="metadata7">
    <rdf:RDF>
      <cc:Work
         rdf:about="">
        <dc:format>image/svg+xml</dc:format>
        <dc:type
           rdf:resource="http://purl.org/dc/dcmitype/StillImage" />
        <dc:title></dc:title>
      </cc:Work>
    </rdf:RDF>
  </metadata>
  <g
     inkscape:groupmode="layer"
     id="layer2"
     inkscape:label="Frame">
    <path
       style="fill:none;fill-opacity:1;stroke:#000000;stroke-width:0.70866144;stroke-linejoin:miter;stroke-miterlimit:4;stroke-dasharray:none;stroke-dashoffset:0;stroke-opacity:1"
       d="m 0,921.26016 0,106.29884 47.835564,0 1.771466,0 72.63615,0 47.83556,0 0,-106.29884 -35.78683,0 0,53.14844 4.4277,0 0,10.63085 -4.4277,0 0,7.08594 -10.63078,0 0,-7.08594 -4.42965,0 0,-10.63085 4.42965,0 0,-53.14844 -1.41795,0 -17.71471,0 0,35.43164 5.31441,0 0,10.63086 -5.31441,0 -38.976255,0 -5.316358,0 0,-10.63086 5.316358,0 0,-35.43164 -15.945185,0 -1.771466,0 -1.417959,0 0,53.14844 4.429655,0 0,10.63085 -4.429655,0 0,7.08594 -10.630776,0 0,-7.08594 -4.427696,0 0,-10.63085 4.427696,0 0,-53.14844 -35.786829,0 z"
       id="rect4270"
       inkscape:connector-curvature="0" />
  </g>
  <g
     inkscape:label="Cut"
     inkscape:groupmode="layer"
     id="layer1"
     transform="translate(0,-24.803154)">
    <g
       id="g4278"
       transform="matrix(0.99999215,0,0,1,-652.31704,657.63737)"
       style="stroke:#008000">
      <path
         style="fill:none;fill-opacity:1;stroke:#008000;stroke-width:0.70866156;stroke-linejoin:miter;stroke-miterlimit:4;stroke-dasharray:none;stroke-dashoffset:0;stroke-opacity:1"
         d="m 712.91345,297.28336 a 3.8976378,3.8976378 0 0 1 -3.89764,3.89763 3.8976378,3.8976378 0 0 1 -3.89764,-3.89763 3.8976378,3.8976378 0 0 1 3.89764,-3.89764 3.8976378,3.8976378 0 0 1 3.89764,3.89764 z"
         id="path4272" />
      <path
         style="fill:none;fill-opacity:1;stroke:#008000;stroke-width:0.70866156;stroke-linejoin:miter;stroke-miterlimit:4;stroke-dasharray:none;stroke-dashoffset:0;stroke-opacity:1"
         d="m 769.60638,297.28336 a 3.8976378,3.8976378 0 0 1 -3.89764,3.89763 3.8976378,3.8976378 0 0 1 -3.89764,-3.89763 3.8976378,3.8976378 0 0 1 3.89764,-3.89764 3.8976378,3.8976378 0 0 1 3.89764,3.89764 z"
         id="circle4276" />
    </g>
  </g>
</svg>
