<?xml version="1.0" encoding="UTF-8" standalone="no"?>
<!-- Created with Inkscape (http://www.inkscape.org/) -->

<svg
   xmlns:dc="http://purl.org/dc/elements/1.1/"
   xmlns:cc="http://creativecommons.org/ns#"
   xmlns:rdf="http://www.w3.org/1999/02/22-rdf-syntax-ns#"
   xmlns:svg="http://www.w3.org/2000/svg"
   xmlns="http://www.w3.org/2000/svg"
   xmlns:sodipodi="http://sodipodi.sourceforge.net/DTD/sodipodi-0.dtd"
   xmlns:inkscape="http://www.inkscape.org/namespaces/inkscape"
   width="210mm"
   height="297mm"
   viewBox="0 0 744.09448819 1052.3622047"
   id="svg2"
   version="1.1"
   inkscape:version="0.91 r13725"
   sodipodi:docname="powerpole_holder.svg">
  <sodipodi:namedview
     id="base"
     pagecolor="#ffffff"
     bordercolor="#666666"
     borderopacity="1.0"
     inkscape:pageopacity="0.0"
     inkscape:pageshadow="2"
     inkscape:zoom="1.8622574"
     inkscape:cx="109.84278"
     inkscape:cy="147.04726"
     inkscape:document-units="mm"
     inkscape:current-layer="layer2"
     showgrid="true"
     inkscape:snap-bbox="true"
     inkscape:snap-text-baseline="true"
     inkscape:window-width="2560"
     inkscape:window-height="1315"
     inkscape:window-x="0"
     inkscape:window-y="1"
     inkscape:window-maximized="1">
    <inkscape:grid
       type="xygrid"
       id="grid4136"
       units="mm"
       spacingx="3.5433071"
       spacingy="3.5433072" />
  </sodipodi:namedview>
  <defs
     id="defs4" />
  <metadata
     id="metadata7">
    <rdf:RDF>
      <cc:Work
         rdf:about="">
        <dc:format>image/svg+xml</dc:format>
        <dc:type
           rdf:resource="http://purl.org/dc/dcmitype/StillImage" />
        <dc:title />
      </cc:Work>
    </rdf:RDF>
  </metadata>
  <g
     inkscape:groupmode="layer"
     id="layer3"
     inkscape:label="Frame"
     style="display:inline"
     sodipodi:insensitive="true">
    <path
       style="fill:none;fill-opacity:1;stroke:#000000;stroke-width:0.70899999;stroke-linejoin:miter;stroke-miterlimit:4;stroke-dasharray:none;stroke-dashoffset:0;stroke-opacity:1"
       d="m 113.38672,999.21289 0,53.14841 106.29883,0 0,-53.14841 -30.11914,0 0,35.43361 -46.0625,0 0,-35.43361 -30.11719,0 z"
       id="rect4146"
       inkscape:connector-curvature="0" />
    <rect
       style="fill:none;fill-opacity:1;stroke:#000000;stroke-width:0.70899999;stroke-linejoin:miter;stroke-miterlimit:4;stroke-dasharray:none;stroke-dashoffset:0;stroke-opacity:1"
       id="rect4138"
       width="106.29921"
       height="53.149609"
       x="0"
       y="999.21259"
       rx="1.55022e-14"
       ry="1.55022e-14" />
    <rect
       ry="1.55022e-14"
       rx="1.55022e-14"
       y="938.97638"
       x="0"
       height="53.149609"
       width="106.29921"
       id="rect4182"
       style="fill:none;fill-opacity:1;stroke:#000000;stroke-width:0.70899999;stroke-linejoin:miter;stroke-miterlimit:4;stroke-dasharray:none;stroke-dashoffset:0;stroke-opacity:1" />
    <rect
       style="fill:none;fill-opacity:1;stroke:#000000;stroke-width:0.70899999;stroke-linejoin:miter;stroke-miterlimit:4;stroke-dasharray:none;stroke-dashoffset:0;stroke-opacity:1"
       id="rect4198"
       width="106.29921"
       height="53.149609"
       x="0"
       y="878.74017"
       rx="1.55022e-14"
       ry="1.55022e-14" />
    <rect
       style="fill:none;fill-opacity:1;stroke:#000000;stroke-width:0.70899999;stroke-linejoin:miter;stroke-miterlimit:4;stroke-dasharray:none;stroke-dashoffset:0;stroke-opacity:1"
       id="rect4214"
       width="106.29921"
       height="53.149609"
       x="113.38583"
       y="938.97638"
       rx="1.55022e-14"
       ry="1.55022e-14" />
    <rect
       ry="1.55022e-14"
       rx="1.55022e-14"
       y="878.74017"
       x="113.38583"
       height="53.149609"
       width="106.29921"
       id="rect4230"
       style="fill:none;fill-opacity:1;stroke:#000000;stroke-width:0.70899999;stroke-linejoin:miter;stroke-miterlimit:4;stroke-dasharray:none;stroke-dashoffset:0;stroke-opacity:1" />
    <rect
       style="fill:none;fill-opacity:1;stroke:#000000;stroke-width:0.70899999;stroke-linejoin:miter;stroke-miterlimit:4;stroke-dasharray:none;stroke-dashoffset:0;stroke-opacity:1"
       id="rect4246"
       width="106.29921"
       height="53.149609"
       x="113.38583"
       y="818.50391"
       rx="1.55022e-14"
       ry="1.55022e-14" />
    <rect
       ry="1.55022e-14"
       rx="1.55022e-14"
       y="758.2677"
       x="113.38583"
       height="53.149609"
       width="106.29921"
       id="rect4278"
       style="fill:none;fill-opacity:1;stroke:#000000;stroke-width:0.70899999;stroke-linejoin:miter;stroke-miterlimit:4;stroke-dasharray:none;stroke-dashoffset:0;stroke-opacity:1" />
    <rect
       ry="1.55022e-14"
       rx="1.55022e-14"
       y="818.50391"
       x="3.7402344e-06"
       height="53.149609"
       width="106.29921"
       id="rect4294"
       style="fill:none;fill-opacity:1;stroke:#000000;stroke-width:0.70899999;stroke-linejoin:miter;stroke-miterlimit:4;stroke-dasharray:none;stroke-dashoffset:0;stroke-opacity:1" />
    <rect
       style="fill:none;fill-opacity:1;stroke:#000000;stroke-width:0.70899999;stroke-linejoin:miter;stroke-miterlimit:4;stroke-dasharray:none;stroke-dashoffset:0;stroke-opacity:1"
       id="rect4310"
       width="106.29921"
       height="53.149609"
       x="3.7402344e-06"
       y="758.2677"
       rx="1.55022e-14"
       ry="1.55022e-14" />
  </g>
  <g
     inkscape:label="Cut"
     inkscape:groupmode="layer"
     id="layer1"
     sodipodi:insensitive="true">
    <rect
       style="fill:none;fill-opacity:1;stroke:#008000;stroke-width:0.70899999;stroke-linejoin:miter;stroke-miterlimit:4;stroke-dasharray:none;stroke-dashoffset:0;stroke-opacity:1"
       id="rect4140"
       width="58.464565"
       height="30.118111"
       x="23.917322"
       y="1010.7283"
       rx="1.55022e-14"
       ry="1.55022e-14" />
    <g
       id="g4161"
       style="stroke:#008000">
      <path
         id="path4155"
         d="m 14.881711,1025.7874 a 5.6692863,5.6692863 0 0 1 -5.6692867,5.6692 5.6692863,5.6692863 0 0 1 -5.6692863,-5.6692 5.6692863,5.6692863 0 0 1 5.6692863,-5.6693 5.6692863,5.6692863 0 0 1 5.6692867,5.6693 z"
         style="fill:none;fill-opacity:1;stroke:#008000;stroke-width:0.70866144;stroke-linejoin:miter;stroke-miterlimit:4;stroke-dasharray:none;stroke-dashoffset:0;stroke-opacity:1"
         inkscape:connector-curvature="0" />
      <path
         id="circle4157"
         d="m 102.75608,1025.7874 a 5.6692863,5.6692863 0 0 1 -5.669288,5.6692 5.6692863,5.6692863 0 0 1 -5.669286,-5.6692 5.6692863,5.6692863 0 0 1 5.669286,-5.6693 5.6692863,5.6692863 0 0 1 5.669288,5.6693 z"
         style="fill:none;fill-opacity:1;stroke:#008000;stroke-width:0.70866144;stroke-linejoin:miter;stroke-miterlimit:4;stroke-dasharray:none;stroke-dashoffset:0;stroke-opacity:1"
         inkscape:connector-curvature="0" />
    </g>
    <g
       id="g4165"
       transform="translate(113.38653,0)"
       style="stroke:#008000">
      <path
         style="fill:none;fill-opacity:1;stroke:#008000;stroke-width:0.70866144;stroke-linejoin:miter;stroke-miterlimit:4;stroke-dasharray:none;stroke-dashoffset:0;stroke-opacity:1"
         d="m 14.881711,1025.7874 a 5.6692863,5.6692863 0 0 1 -5.6692867,5.6692 5.6692863,5.6692863 0 0 1 -5.6692863,-5.6692 5.6692863,5.6692863 0 0 1 5.6692863,-5.6693 5.6692863,5.6692863 0 0 1 5.6692867,5.6693 z"
         id="path4167"
         inkscape:connector-curvature="0" />
      <path
         style="fill:none;fill-opacity:1;stroke:#008000;stroke-width:0.70866144;stroke-linejoin:miter;stroke-miterlimit:4;stroke-dasharray:none;stroke-dashoffset:0;stroke-opacity:1"
         d="m 102.75608,1025.7874 a 5.6692863,5.6692863 0 0 1 -5.669288,5.6692 5.6692863,5.6692863 0 0 1 -5.669286,-5.6692 5.6692863,5.6692863 0 0 1 5.669286,-5.6693 5.6692863,5.6692863 0 0 1 5.669288,5.6693 z"
         id="path4169"
         inkscape:connector-curvature="0" />
    </g>
    <rect
       ry="1.55022e-14"
       rx="1.55022e-14"
       y="950.49207"
       x="23.917322"
       height="30.118111"
       width="58.464565"
       id="rect4184"
       style="fill:none;fill-opacity:1;stroke:#008000;stroke-width:0.70899999;stroke-linejoin:miter;stroke-miterlimit:4;stroke-dasharray:none;stroke-dashoffset:0;stroke-opacity:1" />
    <g
       id="g4190"
       transform="translate(0,-60.23622)"
       style="stroke:#008000">
      <path
         inkscape:connector-curvature="0"
         style="fill:none;fill-opacity:1;stroke:#008000;stroke-width:0.70866144;stroke-linejoin:miter;stroke-miterlimit:4;stroke-dasharray:none;stroke-dashoffset:0;stroke-opacity:1"
         d="m 14.881711,1025.7874 a 5.6692863,5.6692863 0 0 1 -5.6692867,5.6692 5.6692863,5.6692863 0 0 1 -5.6692863,-5.6692 5.6692863,5.6692863 0 0 1 5.6692863,-5.6693 5.6692863,5.6692863 0 0 1 5.6692867,5.6693 z"
         id="path4192" />
      <path
         inkscape:connector-curvature="0"
         style="fill:none;fill-opacity:1;stroke:#008000;stroke-width:0.70866144;stroke-linejoin:miter;stroke-miterlimit:4;stroke-dasharray:none;stroke-dashoffset:0;stroke-opacity:1"
         d="m 102.75608,1025.7874 a 5.6692863,5.6692863 0 0 1 -5.669288,5.6692 5.6692863,5.6692863 0 0 1 -5.669286,-5.6692 5.6692863,5.6692863 0 0 1 5.669286,-5.6693 5.6692863,5.6692863 0 0 1 5.669288,5.6693 z"
         id="path4194" />
    </g>
    <rect
       style="fill:none;fill-opacity:1;stroke:#008000;stroke-width:0.70899999;stroke-linejoin:miter;stroke-miterlimit:4;stroke-dasharray:none;stroke-dashoffset:0;stroke-opacity:1"
       id="rect4200"
       width="58.464565"
       height="30.118111"
       x="23.917322"
       y="890.25586"
       rx="1.55022e-14"
       ry="1.55022e-14" />
    <g
       id="g4206"
       transform="translate(0,-120.47244)"
       style="stroke:#008000">
      <path
         id="path4208"
         d="m 14.881711,1025.7874 a 5.6692863,5.6692863 0 0 1 -5.6692867,5.6692 5.6692863,5.6692863 0 0 1 -5.6692863,-5.6692 5.6692863,5.6692863 0 0 1 5.6692863,-5.6693 5.6692863,5.6692863 0 0 1 5.6692867,5.6693 z"
         style="fill:none;fill-opacity:1;stroke:#008000;stroke-width:0.70866144;stroke-linejoin:miter;stroke-miterlimit:4;stroke-dasharray:none;stroke-dashoffset:0;stroke-opacity:1"
         inkscape:connector-curvature="0" />
      <path
         id="path4210"
         d="m 102.75608,1025.7874 a 5.6692863,5.6692863 0 0 1 -5.669288,5.6692 5.6692863,5.6692863 0 0 1 -5.669286,-5.6692 5.6692863,5.6692863 0 0 1 5.669286,-5.6693 5.6692863,5.6692863 0 0 1 5.669288,5.6693 z"
         style="fill:none;fill-opacity:1;stroke:#008000;stroke-width:0.70866144;stroke-linejoin:miter;stroke-miterlimit:4;stroke-dasharray:none;stroke-dashoffset:0;stroke-opacity:1"
         inkscape:connector-curvature="0" />
    </g>
    <rect
       style="fill:none;fill-opacity:1;stroke:#008000;stroke-width:0.70899999;stroke-linejoin:miter;stroke-miterlimit:4;stroke-dasharray:none;stroke-dashoffset:0;stroke-opacity:1"
       id="rect4216"
       width="58.464565"
       height="30.118111"
       x="137.30315"
       y="950.49207"
       rx="1.55022e-14"
       ry="1.55022e-14" />
    <g
       id="g4222"
       transform="translate(113.38583,-60.23622)"
       style="stroke:#008000">
      <path
         id="path4224"
         d="m 14.881711,1025.7874 a 5.6692863,5.6692863 0 0 1 -5.6692867,5.6692 5.6692863,5.6692863 0 0 1 -5.6692863,-5.6692 5.6692863,5.6692863 0 0 1 5.6692863,-5.6693 5.6692863,5.6692863 0 0 1 5.6692867,5.6693 z"
         style="fill:none;fill-opacity:1;stroke:#008000;stroke-width:0.70866144;stroke-linejoin:miter;stroke-miterlimit:4;stroke-dasharray:none;stroke-dashoffset:0;stroke-opacity:1"
         inkscape:connector-curvature="0" />
      <path
         id="path4226"
         d="m 102.75608,1025.7874 a 5.6692863,5.6692863 0 0 1 -5.669288,5.6692 5.6692863,5.6692863 0 0 1 -5.669286,-5.6692 5.6692863,5.6692863 0 0 1 5.669286,-5.6693 5.6692863,5.6692863 0 0 1 5.669288,5.6693 z"
         style="fill:none;fill-opacity:1;stroke:#008000;stroke-width:0.70866144;stroke-linejoin:miter;stroke-miterlimit:4;stroke-dasharray:none;stroke-dashoffset:0;stroke-opacity:1"
         inkscape:connector-curvature="0" />
    </g>
    <rect
       ry="1.55022e-14"
       rx="1.55022e-14"
       y="890.25586"
       x="137.30315"
       height="30.118111"
       width="58.464565"
       id="rect4232"
       style="fill:none;fill-opacity:1;stroke:#008000;stroke-width:0.70899999;stroke-linejoin:miter;stroke-miterlimit:4;stroke-dasharray:none;stroke-dashoffset:0;stroke-opacity:1" />
    <path
       id="path4240"
       d="m 128.26754,905.31496 a 5.6692863,5.6692863 0 0 1 -5.66929,5.6692 5.6692863,5.6692863 0 0 1 -5.66928,-5.6692 5.6692863,5.6692863 0 0 1 5.66928,-5.6693 5.6692863,5.6692863 0 0 1 5.66929,5.6693 z"
       style="fill:none;fill-opacity:1;stroke:#008000;stroke-width:0.70866144;stroke-linejoin:miter;stroke-miterlimit:4;stroke-dasharray:none;stroke-dashoffset:0;stroke-opacity:1"
       inkscape:connector-curvature="0" />
    <path
       id="path4242"
       d="m 216.14191,905.31496 a 5.6692863,5.6692863 0 0 1 -5.66929,5.6692 5.6692863,5.6692863 0 0 1 -5.66928,-5.6692 5.6692863,5.6692863 0 0 1 5.66928,-5.6693 5.6692863,5.6692863 0 0 1 5.66929,5.6693 z"
       style="fill:none;fill-opacity:1;stroke:#008000;stroke-width:0.70866144;stroke-linejoin:miter;stroke-miterlimit:4;stroke-dasharray:none;stroke-dashoffset:0;stroke-opacity:1"
       inkscape:connector-curvature="0" />
    <rect
       style="fill:none;fill-opacity:1;stroke:#008000;stroke-width:0.70899999;stroke-linejoin:miter;stroke-miterlimit:4;stroke-dasharray:none;stroke-dashoffset:0;stroke-opacity:1"
       id="rect4248"
       width="67.322838"
       height="38.976379"
       x="132.87402"
       y="825.59052"
       rx="1.55022e-14"
       ry="1.55022e-14" />
    <g
       id="g4254"
       transform="translate(113.38583,-180.70866)"
       style="stroke:#008000">
      <path
         id="path4256"
         d="m 14.881711,1025.7874 a 5.6692863,5.6692863 0 0 1 -5.6692867,5.6692 5.6692863,5.6692863 0 0 1 -5.6692863,-5.6692 5.6692863,5.6692863 0 0 1 5.6692863,-5.6693 5.6692863,5.6692863 0 0 1 5.6692867,5.6693 z"
         style="fill:none;fill-opacity:1;stroke:#008000;stroke-width:0.70866144;stroke-linejoin:miter;stroke-miterlimit:4;stroke-dasharray:none;stroke-dashoffset:0;stroke-opacity:1"
         inkscape:connector-curvature="0" />
      <path
         id="path4258"
         d="m 102.75608,1025.7874 a 5.6692863,5.6692863 0 0 1 -5.669288,5.6692 5.6692863,5.6692863 0 0 1 -5.669286,-5.6692 5.6692863,5.6692863 0 0 1 5.669286,-5.6693 5.6692863,5.6692863 0 0 1 5.669288,5.6693 z"
         style="fill:none;fill-opacity:1;stroke:#008000;stroke-width:0.70866144;stroke-linejoin:miter;stroke-miterlimit:4;stroke-dasharray:none;stroke-dashoffset:0;stroke-opacity:1"
         inkscape:connector-curvature="0" />
    </g>
    <rect
       ry="1.55022e-14"
       rx="1.55022e-14"
       y="765.35431"
       x="132.87402"
       height="38.976379"
       width="67.322838"
       id="rect4280"
       style="fill:none;fill-opacity:1;stroke:#008000;stroke-width:0.70899999;stroke-linejoin:miter;stroke-miterlimit:4;stroke-dasharray:none;stroke-dashoffset:0;stroke-opacity:1" />
    <g
       transform="translate(113.38583,-240.94488)"
       id="g4286"
       style="stroke:#008000">
      <path
         inkscape:connector-curvature="0"
         style="fill:none;fill-opacity:1;stroke:#008000;stroke-width:0.70866144;stroke-linejoin:miter;stroke-miterlimit:4;stroke-dasharray:none;stroke-dashoffset:0;stroke-opacity:1"
         d="m 14.881711,1025.7874 a 5.6692863,5.6692863 0 0 1 -5.6692867,5.6692 5.6692863,5.6692863 0 0 1 -5.6692863,-5.6692 5.6692863,5.6692863 0 0 1 5.6692863,-5.6693 5.6692863,5.6692863 0 0 1 5.6692867,5.6693 z"
         id="path4288" />
      <path
         inkscape:connector-curvature="0"
         style="fill:none;fill-opacity:1;stroke:#008000;stroke-width:0.70866144;stroke-linejoin:miter;stroke-miterlimit:4;stroke-dasharray:none;stroke-dashoffset:0;stroke-opacity:1"
         d="m 102.75608,1025.7874 a 5.6692863,5.6692863 0 0 1 -5.669288,5.6692 5.6692863,5.6692863 0 0 1 -5.669286,-5.6692 5.6692863,5.6692863 0 0 1 5.669286,-5.6693 5.6692863,5.6692863 0 0 1 5.669288,5.6693 z"
         id="path4290" />
    </g>
    <rect
       ry="1.55022e-14"
       rx="1.55022e-14"
       y="825.59052"
       x="19.48819"
       height="38.976379"
       width="67.322838"
       id="rect4296"
       style="fill:none;fill-opacity:1;stroke:#008000;stroke-width:0.70899999;stroke-linejoin:miter;stroke-miterlimit:4;stroke-dasharray:none;stroke-dashoffset:0;stroke-opacity:1" />
    <g
       transform="translate(0,-180.70866)"
       id="g4302"
       style="stroke:#008000">
      <path
         inkscape:connector-curvature="0"
         style="fill:none;fill-opacity:1;stroke:#008000;stroke-width:0.70866144;stroke-linejoin:miter;stroke-miterlimit:4;stroke-dasharray:none;stroke-dashoffset:0;stroke-opacity:1"
         d="m 14.881711,1025.7874 a 5.6692863,5.6692863 0 0 1 -5.6692867,5.6692 5.6692863,5.6692863 0 0 1 -5.6692863,-5.6692 5.6692863,5.6692863 0 0 1 5.6692863,-5.6693 5.6692863,5.6692863 0 0 1 5.6692867,5.6693 z"
         id="path4304" />
      <path
         inkscape:connector-curvature="0"
         style="fill:none;fill-opacity:1;stroke:#008000;stroke-width:0.70866144;stroke-linejoin:miter;stroke-miterlimit:4;stroke-dasharray:none;stroke-dashoffset:0;stroke-opacity:1"
         d="m 102.75608,1025.7874 a 5.6692863,5.6692863 0 0 1 -5.669288,5.6692 5.6692863,5.6692863 0 0 1 -5.669286,-5.6692 5.6692863,5.6692863 0 0 1 5.669286,-5.6693 5.6692863,5.6692863 0 0 1 5.669288,5.6693 z"
         id="path4306" />
    </g>
    <rect
       style="fill:none;fill-opacity:1;stroke:#008000;stroke-width:0.70899999;stroke-linejoin:miter;stroke-miterlimit:4;stroke-dasharray:none;stroke-dashoffset:0;stroke-opacity:1"
       id="rect4312"
       width="67.322838"
       height="38.976379"
       x="19.48819"
       y="765.35431"
       rx="1.55022e-14"
       ry="1.55022e-14" />
    <g
       id="g4318"
       transform="translate(0,-240.94488)"
       style="stroke:#008000">
      <path
         id="path4320"
         d="m 14.881711,1025.7874 a 5.6692863,5.6692863 0 0 1 -5.6692867,5.6692 5.6692863,5.6692863 0 0 1 -5.6692863,-5.6692 5.6692863,5.6692863 0 0 1 5.6692863,-5.6693 5.6692863,5.6692863 0 0 1 5.6692867,5.6693 z"
         style="fill:none;fill-opacity:1;stroke:#008000;stroke-width:0.70866144;stroke-linejoin:miter;stroke-miterlimit:4;stroke-dasharray:none;stroke-dashoffset:0;stroke-opacity:1"
         inkscape:connector-curvature="0" />
      <path
         id="path4322"
         d="m 102.75608,1025.7874 a 5.6692863,5.6692863 0 0 1 -5.669288,5.6692 5.6692863,5.6692863 0 0 1 -5.669286,-5.6692 5.6692863,5.6692863 0 0 1 5.669286,-5.6693 5.6692863,5.6692863 0 0 1 5.669288,5.6693 z"
         style="fill:none;fill-opacity:1;stroke:#008000;stroke-width:0.70866144;stroke-linejoin:miter;stroke-miterlimit:4;stroke-dasharray:none;stroke-dashoffset:0;stroke-opacity:1"
         inkscape:connector-curvature="0" />
    </g>
  </g>
  <g
     inkscape:groupmode="layer"
     id="layer2"
     inkscape:label="Etch">
    <g
       style="display:inline;stroke:#ff6600"
       inkscape:label="Hershey Text"
       transform="matrix(0.5,0,0,0.5,5.2478287,1042.784)"
       id="g7407">
      <path
         inkscape:connector-curvature="0"
         d="m -4,-8 2,-1 3,-3 0,21"
         style="fill:none;stroke:#ff6600"
         transform="translate(10,0)"
         id="path7409" />
    </g>
    <g
       style="display:inline;stroke:#ff6600"
       id="g7565"
       transform="matrix(0.5,0,0,0.5,118.25454,982.24607)"
       inkscape:label="Hershey Text">
      <path
         inkscape:connector-curvature="0"
         id="path7567"
         transform="translate(10,0)"
         style="fill:none;stroke:#ff6600"
         d="m -6,-7 0,-1 1,-2 1,-1 2,-1 4,0 2,1 1,1 1,2 0,2 L 5,-4 3,-1 -7,9 7,9" />
    </g>
    <g
       style="display:inline;stroke:#ff6600"
       inkscape:label="Hershey Text"
       transform="matrix(0.5,0,0,0.5,4.5537307,982.24607)"
       id="g7727">
      <path
         inkscape:connector-curvature="0"
         d="m -5,-12 11,0 -6,8 3,0 2,1 1,1 L 7,1 7,3 6,6 4,8 1,9 -2,9 -5,8 -6,7 -7,5"
         style="fill:none;stroke:#ff6600"
         transform="translate(10,0)"
         id="path7729" />
    </g>
    <g
       style="display:inline;stroke:#ff6600"
       id="g7893"
       transform="matrix(0.5,0,0,0.5,117.94566,922.08252)"
       inkscape:label="Hershey Text">
      <path
         inkscape:connector-curvature="0"
         id="path7895"
         transform="translate(10,0)"
         style="fill:none;stroke:#ff6600"
         d="M 3,-12 -7,2 8,2 M 3,-12 3,9" />
    </g>
    <g
       style="display:inline;stroke:#ff6600"
       inkscape:label="Hershey Text"
       transform="matrix(0.5,0,0,0.5,4.5537307,922.00987)"
       id="g8063">
      <path
         inkscape:connector-curvature="0"
         d="m 5,-12 -10,0 -1,9 1,-1 3,-1 3,0 3,1 2,2 L 7,1 7,3 6,6 4,8 1,9 -2,9 -5,8 -6,7 -7,5"
         style="fill:none;stroke:#ff6600"
         transform="translate(10,0)"
         id="path8065" />
    </g>
    <g
       style="display:inline;stroke:#ff6600"
       id="g8237"
       transform="matrix(0.5,0,0,0.5,117.70276,861.7736)"
       inkscape:label="Hershey Text">
      <path
         inkscape:connector-curvature="0"
         id="path8239"
         transform="translate(10,0)"
         style="fill:none;stroke:#ff6600"
         d="m 6,-9 -1,-2 -3,-1 -2,0 -3,1 -2,3 -1,5 0,5 1,4 2,2 L 0,9 1,9 4,8 6,6 7,3 7,2 6,-1 4,-3 1,-4 l -1,0 -3,1 -2,2 -1,3" />
    </g>
    <g
       style="display:inline;stroke:#ff6600"
       inkscape:label="Hershey Text"
       transform="matrix(0.5,0,0,0.5,4.4540737,861.84486)"
       id="g8415">
      <path
         inkscape:connector-curvature="0"
         d="M 7,-12 -3,9 m -4,-21 14,0"
         style="fill:none;stroke:#ff6600"
         transform="translate(10,0)"
         id="path8417" />
    </g>
    <g
       style="display:inline;stroke:#ff6600"
       id="g8597"
       transform="matrix(0.5,0,0,0.5,117.95276,801.53739)"
       inkscape:label="Hershey Text">
      <path
         inkscape:connector-curvature="0"
         id="path8599"
         transform="translate(10,0)"
         style="fill:none;stroke:#ff6600"
         d="m -2,-12 -3,1 -1,2 0,2 1,2 2,1 4,1 3,1 L 6,0 7,2 7,5 6,7 5,8 2,9 -2,9 -5,8 -6,7 -7,5 l 0,-3 1,-2 2,-2 3,-1 4,-1 2,-1 1,-2 0,-2 -1,-2 -3,-1 -4,0" />
    </g>
    <g
       style="display:inline;stroke:#ff6600"
       inkscape:label="Hershey Text"
       transform="matrix(0.5,0,0,0.5,4.8169317,801.53739)"
       id="g8783">
      <path
         inkscape:connector-curvature="0"
         d="M 6,-5 5,-2 3,0 0,1 -1,1 -4,0 l -2,-2 -1,-3 0,-1 1,-3 2,-2 3,-1 1,0 3,1 2,2 1,4 L 6,0 5,5 3,8 0,9 -2,9 -5,8 -6,6"
         style="fill:none;stroke:#ff6600"
         transform="translate(10,0)"
         id="path8785" />
    </g>
    <g
       style="display:inline;stroke:#ff6600"
       id="g8973"
       transform="matrix(0.5,0,0,0.5,117.95345,1042.4819)"
       inkscape:label="Hershey Text">
      <path
         id="path8975"
         transform="translate(10,0)"
         style="fill:none;stroke:#ff6600"
         d="m -1,-12 -3,1 -2,3 -1,5 0,3 1,5 2,3 3,1 2,0 3,-1 2,-3 1,-5 0,-3 -1,-5 -2,-3 -3,-1 -2,0"
         inkscape:connector-curvature="0" />
    </g>
  </g>
</svg>
