<?xml version="1.0" encoding="UTF-8" standalone="no"?>
<!-- Created with Inkscape (http://www.inkscape.org/) -->

<svg
   xmlns:dc="http://purl.org/dc/elements/1.1/"
   xmlns:cc="http://creativecommons.org/ns#"
   xmlns:rdf="http://www.w3.org/1999/02/22-rdf-syntax-ns#"
   xmlns:svg="http://www.w3.org/2000/svg"
   xmlns="http://www.w3.org/2000/svg"
   xmlns:sodipodi="http://sodipodi.sourceforge.net/DTD/sodipodi-0.dtd"
   xmlns:inkscape="http://www.inkscape.org/namespaces/inkscape"
   width="210mm"
   height="297mm"
   viewBox="0 0 744.09448819 1052.3622047"
   id="svg2"
   version="1.1"
   inkscape:version="0.91 r13725"
   sodipodi:docname="PowerpoleHalterung.svg">
  <defs
     id="defs4" />
  <sodipodi:namedview
     id="base"
     pagecolor="#ffffff"
     bordercolor="#666666"
     borderopacity="1.0"
     inkscape:pageopacity="0.0"
     inkscape:pageshadow="2"
     inkscape:zoom="3.8296695"
     inkscape:cx="109.84278"
     inkscape:cy="147.04726"
     inkscape:document-units="mm"
     inkscape:current-layer="layer2"
     showgrid="true"
     inkscape:snap-bbox="true"
     inkscape:snap-text-baseline="true"
     inkscape:window-width="2560"
     inkscape:window-height="1315"
     inkscape:window-x="0"
     inkscape:window-y="1"
     inkscape:window-maximized="1">
    <inkscape:grid
       type="xygrid"
       id="grid4136"
       units="mm"
       spacingx="3.5433071"
       spacingy="3.5433072" />
  </sodipodi:namedview>
  <metadata
     id="metadata7">
    <rdf:RDF>
      <cc:Work
         rdf:about="">
        <dc:format>image/svg+xml</dc:format>
        <dc:type
           rdf:resource="http://purl.org/dc/dcmitype/StillImage" />
        <dc:title></dc:title>
      </cc:Work>
    </rdf:RDF>
  </metadata>
  <g
     inkscape:label="Cut"
     inkscape:groupmode="layer"
     id="layer1"
     sodipodi:insensitive="true">
    <path
       style="fill:none;fill-opacity:1;stroke:#000000;stroke-width:0.70899999;stroke-linejoin:miter;stroke-miterlimit:4;stroke-dasharray:none;stroke-dashoffset:0;stroke-opacity:1"
       d="m 113.38672,999.21289 0,53.14841 106.29883,0 0,-53.14841 -30.11914,0 0,35.43361 -46.0625,0 0,-35.43361 -30.11719,0 z"
       id="rect4146"
       inkscape:connector-curvature="0" />
    <rect
       style="fill:none;fill-opacity:1;stroke:#000000;stroke-width:0.70899999;stroke-linejoin:miter;stroke-miterlimit:4;stroke-dasharray:none;stroke-dashoffset:0;stroke-opacity:1"
       id="rect4138"
       width="106.29921"
       height="53.149609"
       x="0"
       y="999.21259"
       rx="1.55022e-14"
       ry="1.55022e-14" />
    <rect
       style="fill:none;fill-opacity:1;stroke:#000000;stroke-width:0.70899999;stroke-linejoin:miter;stroke-miterlimit:4;stroke-dasharray:none;stroke-dashoffset:0;stroke-opacity:1"
       id="rect4140"
       width="58.464565"
       height="30.118111"
       x="23.917322"
       y="1010.7283"
       rx="1.55022e-14"
       ry="1.55022e-14" />
    <g
       id="g4161">
      <path
         id="path4155"
         d="m 14.881711,1025.7874 a 5.6692863,5.6692863 0 0 1 -5.6692867,5.6692 5.6692863,5.6692863 0 0 1 -5.6692863,-5.6692 5.6692863,5.6692863 0 0 1 5.6692863,-5.6693 5.6692863,5.6692863 0 0 1 5.6692867,5.6693 z"
         style="fill:none;fill-opacity:1;stroke:#000000;stroke-width:0.70866144;stroke-linejoin:miter;stroke-miterlimit:4;stroke-dasharray:none;stroke-dashoffset:0;stroke-opacity:1"
         inkscape:connector-curvature="0" />
      <path
         id="circle4157"
         d="m 102.75608,1025.7874 a 5.6692863,5.6692863 0 0 1 -5.669288,5.6692 5.6692863,5.6692863 0 0 1 -5.669286,-5.6692 5.6692863,5.6692863 0 0 1 5.669286,-5.6693 5.6692863,5.6692863 0 0 1 5.669288,5.6693 z"
         style="fill:none;fill-opacity:1;stroke:#000000;stroke-width:0.70866144;stroke-linejoin:miter;stroke-miterlimit:4;stroke-dasharray:none;stroke-dashoffset:0;stroke-opacity:1"
         inkscape:connector-curvature="0" />
    </g>
    <g
       id="g4165"
       transform="translate(113.38653,0)">
      <path
         style="fill:none;fill-opacity:1;stroke:#000000;stroke-width:0.70866144;stroke-linejoin:miter;stroke-miterlimit:4;stroke-dasharray:none;stroke-dashoffset:0;stroke-opacity:1"
         d="m 14.881711,1025.7874 a 5.6692863,5.6692863 0 0 1 -5.6692867,5.6692 5.6692863,5.6692863 0 0 1 -5.6692863,-5.6692 5.6692863,5.6692863 0 0 1 5.6692863,-5.6693 5.6692863,5.6692863 0 0 1 5.6692867,5.6693 z"
         id="path4167"
         inkscape:connector-curvature="0" />
      <path
         style="fill:none;fill-opacity:1;stroke:#000000;stroke-width:0.70866144;stroke-linejoin:miter;stroke-miterlimit:4;stroke-dasharray:none;stroke-dashoffset:0;stroke-opacity:1"
         d="m 102.75608,1025.7874 a 5.6692863,5.6692863 0 0 1 -5.669288,5.6692 5.6692863,5.6692863 0 0 1 -5.669286,-5.6692 5.6692863,5.6692863 0 0 1 5.669286,-5.6693 5.6692863,5.6692863 0 0 1 5.669288,5.6693 z"
         id="path4169"
         inkscape:connector-curvature="0" />
    </g>
    <rect
       ry="1.55022e-14"
       rx="1.55022e-14"
       y="938.97638"
       x="0"
       height="53.149609"
       width="106.29921"
       id="rect4182"
       style="fill:none;fill-opacity:1;stroke:#000000;stroke-width:0.70899999;stroke-linejoin:miter;stroke-miterlimit:4;stroke-dasharray:none;stroke-dashoffset:0;stroke-opacity:1" />
    <rect
       ry="1.55022e-14"
       rx="1.55022e-14"
       y="950.49207"
       x="23.917322"
       height="30.118111"
       width="58.464565"
       id="rect4184"
       style="fill:none;fill-opacity:1;stroke:#000000;stroke-width:0.70899999;stroke-linejoin:miter;stroke-miterlimit:4;stroke-dasharray:none;stroke-dashoffset:0;stroke-opacity:1" />
    <g
       id="g4190"
       transform="translate(0,-60.23622)">
      <path
         inkscape:connector-curvature="0"
         style="fill:none;fill-opacity:1;stroke:#000000;stroke-width:0.70866144;stroke-linejoin:miter;stroke-miterlimit:4;stroke-dasharray:none;stroke-dashoffset:0;stroke-opacity:1"
         d="m 14.881711,1025.7874 a 5.6692863,5.6692863 0 0 1 -5.6692867,5.6692 5.6692863,5.6692863 0 0 1 -5.6692863,-5.6692 5.6692863,5.6692863 0 0 1 5.6692863,-5.6693 5.6692863,5.6692863 0 0 1 5.6692867,5.6693 z"
         id="path4192" />
      <path
         inkscape:connector-curvature="0"
         style="fill:none;fill-opacity:1;stroke:#000000;stroke-width:0.70866144;stroke-linejoin:miter;stroke-miterlimit:4;stroke-dasharray:none;stroke-dashoffset:0;stroke-opacity:1"
         d="m 102.75608,1025.7874 a 5.6692863,5.6692863 0 0 1 -5.669288,5.6692 5.6692863,5.6692863 0 0 1 -5.669286,-5.6692 5.6692863,5.6692863 0 0 1 5.669286,-5.6693 5.6692863,5.6692863 0 0 1 5.669288,5.6693 z"
         id="path4194" />
    </g>
    <rect
       style="fill:none;fill-opacity:1;stroke:#000000;stroke-width:0.70899999;stroke-linejoin:miter;stroke-miterlimit:4;stroke-dasharray:none;stroke-dashoffset:0;stroke-opacity:1"
       id="rect4198"
       width="106.29921"
       height="53.149609"
       x="0"
       y="878.74017"
       rx="1.55022e-14"
       ry="1.55022e-14" />
    <rect
       style="fill:none;fill-opacity:1;stroke:#000000;stroke-width:0.70899999;stroke-linejoin:miter;stroke-miterlimit:4;stroke-dasharray:none;stroke-dashoffset:0;stroke-opacity:1"
       id="rect4200"
       width="58.464565"
       height="30.118111"
       x="23.917322"
       y="890.25586"
       rx="1.55022e-14"
       ry="1.55022e-14" />
    <g
       id="g4206"
       transform="translate(0,-120.47244)">
      <path
         id="path4208"
         d="m 14.881711,1025.7874 a 5.6692863,5.6692863 0 0 1 -5.6692867,5.6692 5.6692863,5.6692863 0 0 1 -5.6692863,-5.6692 5.6692863,5.6692863 0 0 1 5.6692863,-5.6693 5.6692863,5.6692863 0 0 1 5.6692867,5.6693 z"
         style="fill:none;fill-opacity:1;stroke:#000000;stroke-width:0.70866144;stroke-linejoin:miter;stroke-miterlimit:4;stroke-dasharray:none;stroke-dashoffset:0;stroke-opacity:1"
         inkscape:connector-curvature="0" />
      <path
         id="path4210"
         d="m 102.75608,1025.7874 a 5.6692863,5.6692863 0 0 1 -5.669288,5.6692 5.6692863,5.6692863 0 0 1 -5.669286,-5.6692 5.6692863,5.6692863 0 0 1 5.669286,-5.6693 5.6692863,5.6692863 0 0 1 5.669288,5.6693 z"
         style="fill:none;fill-opacity:1;stroke:#000000;stroke-width:0.70866144;stroke-linejoin:miter;stroke-miterlimit:4;stroke-dasharray:none;stroke-dashoffset:0;stroke-opacity:1"
         inkscape:connector-curvature="0" />
    </g>
    <rect
       style="fill:none;fill-opacity:1;stroke:#000000;stroke-width:0.70899999;stroke-linejoin:miter;stroke-miterlimit:4;stroke-dasharray:none;stroke-dashoffset:0;stroke-opacity:1"
       id="rect4214"
       width="106.29921"
       height="53.149609"
       x="113.38583"
       y="938.97638"
       rx="1.55022e-14"
       ry="1.55022e-14" />
    <rect
       style="fill:none;fill-opacity:1;stroke:#000000;stroke-width:0.70899999;stroke-linejoin:miter;stroke-miterlimit:4;stroke-dasharray:none;stroke-dashoffset:0;stroke-opacity:1"
       id="rect4216"
       width="58.464565"
       height="30.118111"
       x="137.30315"
       y="950.49207"
       rx="1.55022e-14"
       ry="1.55022e-14" />
    <g
       id="g4222"
       transform="translate(113.38583,-60.23622)">
      <path
         id="path4224"
         d="m 14.881711,1025.7874 a 5.6692863,5.6692863 0 0 1 -5.6692867,5.6692 5.6692863,5.6692863 0 0 1 -5.6692863,-5.6692 5.6692863,5.6692863 0 0 1 5.6692863,-5.6693 5.6692863,5.6692863 0 0 1 5.6692867,5.6693 z"
         style="fill:none;fill-opacity:1;stroke:#000000;stroke-width:0.70866144;stroke-linejoin:miter;stroke-miterlimit:4;stroke-dasharray:none;stroke-dashoffset:0;stroke-opacity:1"
         inkscape:connector-curvature="0" />
      <path
         id="path4226"
         d="m 102.75608,1025.7874 a 5.6692863,5.6692863 0 0 1 -5.669288,5.6692 5.6692863,5.6692863 0 0 1 -5.669286,-5.6692 5.6692863,5.6692863 0 0 1 5.669286,-5.6693 5.6692863,5.6692863 0 0 1 5.669288,5.6693 z"
         style="fill:none;fill-opacity:1;stroke:#000000;stroke-width:0.70866144;stroke-linejoin:miter;stroke-miterlimit:4;stroke-dasharray:none;stroke-dashoffset:0;stroke-opacity:1"
         inkscape:connector-curvature="0" />
    </g>
    <rect
       ry="1.55022e-14"
       rx="1.55022e-14"
       y="878.74017"
       x="113.38583"
       height="53.149609"
       width="106.29921"
       id="rect4230"
       style="fill:none;fill-opacity:1;stroke:#000000;stroke-width:0.70899999;stroke-linejoin:miter;stroke-miterlimit:4;stroke-dasharray:none;stroke-dashoffset:0;stroke-opacity:1" />
    <rect
       ry="1.55022e-14"
       rx="1.55022e-14"
       y="890.25586"
       x="137.30315"
       height="30.118111"
       width="58.464565"
       id="rect4232"
       style="fill:none;fill-opacity:1;stroke:#000000;stroke-width:0.70899999;stroke-linejoin:miter;stroke-miterlimit:4;stroke-dasharray:none;stroke-dashoffset:0;stroke-opacity:1" />
    <path
       id="path4240"
       d="m 128.26754,905.31496 a 5.6692863,5.6692863 0 0 1 -5.66929,5.6692 5.6692863,5.6692863 0 0 1 -5.66928,-5.6692 5.6692863,5.6692863 0 0 1 5.66928,-5.6693 5.6692863,5.6692863 0 0 1 5.66929,5.6693 z"
       style="fill:none;fill-opacity:1;stroke:#000000;stroke-width:0.70866144;stroke-linejoin:miter;stroke-miterlimit:4;stroke-dasharray:none;stroke-dashoffset:0;stroke-opacity:1"
       inkscape:connector-curvature="0" />
    <path
       id="path4242"
       d="m 216.14191,905.31496 a 5.6692863,5.6692863 0 0 1 -5.66929,5.6692 5.6692863,5.6692863 0 0 1 -5.66928,-5.6692 5.6692863,5.6692863 0 0 1 5.66928,-5.6693 5.6692863,5.6692863 0 0 1 5.66929,5.6693 z"
       style="fill:none;fill-opacity:1;stroke:#000000;stroke-width:0.70866144;stroke-linejoin:miter;stroke-miterlimit:4;stroke-dasharray:none;stroke-dashoffset:0;stroke-opacity:1"
       inkscape:connector-curvature="0" />
    <rect
       style="fill:none;fill-opacity:1;stroke:#000000;stroke-width:0.70899999;stroke-linejoin:miter;stroke-miterlimit:4;stroke-dasharray:none;stroke-dashoffset:0;stroke-opacity:1"
       id="rect4246"
       width="106.29921"
       height="53.149609"
       x="113.38583"
       y="818.50391"
       rx="1.55022e-14"
       ry="1.55022e-14" />
    <rect
       style="fill:none;fill-opacity:1;stroke:#000000;stroke-width:0.70899999;stroke-linejoin:miter;stroke-miterlimit:4;stroke-dasharray:none;stroke-dashoffset:0;stroke-opacity:1"
       id="rect4248"
       width="60.236221"
       height="31.889763"
       x="136.41733"
       y="829.13385"
       rx="1.55022e-14"
       ry="1.55022e-14" />
    <g
       id="g4254"
       transform="translate(113.38583,-180.70866)">
      <path
         id="path4256"
         d="m 14.881711,1025.7874 a 5.6692863,5.6692863 0 0 1 -5.6692867,5.6692 5.6692863,5.6692863 0 0 1 -5.6692863,-5.6692 5.6692863,5.6692863 0 0 1 5.6692863,-5.6693 5.6692863,5.6692863 0 0 1 5.6692867,5.6693 z"
         style="fill:none;fill-opacity:1;stroke:#000000;stroke-width:0.70866144;stroke-linejoin:miter;stroke-miterlimit:4;stroke-dasharray:none;stroke-dashoffset:0;stroke-opacity:1"
         inkscape:connector-curvature="0" />
      <path
         id="path4258"
         d="m 102.75608,1025.7874 a 5.6692863,5.6692863 0 0 1 -5.669288,5.6692 5.6692863,5.6692863 0 0 1 -5.669286,-5.6692 5.6692863,5.6692863 0 0 1 5.669286,-5.6693 5.6692863,5.6692863 0 0 1 5.669288,5.6693 z"
         style="fill:none;fill-opacity:1;stroke:#000000;stroke-width:0.70866144;stroke-linejoin:miter;stroke-miterlimit:4;stroke-dasharray:none;stroke-dashoffset:0;stroke-opacity:1"
         inkscape:connector-curvature="0" />
    </g>
    <rect
       ry="1.55022e-14"
       rx="1.55022e-14"
       y="758.2677"
       x="113.38583"
       height="53.149609"
       width="106.29921"
       id="rect4278"
       style="fill:none;fill-opacity:1;stroke:#000000;stroke-width:0.70899999;stroke-linejoin:miter;stroke-miterlimit:4;stroke-dasharray:none;stroke-dashoffset:0;stroke-opacity:1" />
    <rect
       ry="1.55022e-14"
       rx="1.55022e-14"
       y="768.89764"
       x="136.41733"
       height="31.889763"
       width="60.236221"
       id="rect4280"
       style="fill:none;fill-opacity:1;stroke:#000000;stroke-width:0.70899999;stroke-linejoin:miter;stroke-miterlimit:4;stroke-dasharray:none;stroke-dashoffset:0;stroke-opacity:1" />
    <g
       transform="translate(113.38583,-240.94488)"
       id="g4286">
      <path
         inkscape:connector-curvature="0"
         style="fill:none;fill-opacity:1;stroke:#000000;stroke-width:0.70866144;stroke-linejoin:miter;stroke-miterlimit:4;stroke-dasharray:none;stroke-dashoffset:0;stroke-opacity:1"
         d="m 14.881711,1025.7874 a 5.6692863,5.6692863 0 0 1 -5.6692867,5.6692 5.6692863,5.6692863 0 0 1 -5.6692863,-5.6692 5.6692863,5.6692863 0 0 1 5.6692863,-5.6693 5.6692863,5.6692863 0 0 1 5.6692867,5.6693 z"
         id="path4288" />
      <path
         inkscape:connector-curvature="0"
         style="fill:none;fill-opacity:1;stroke:#000000;stroke-width:0.70866144;stroke-linejoin:miter;stroke-miterlimit:4;stroke-dasharray:none;stroke-dashoffset:0;stroke-opacity:1"
         d="m 102.75608,1025.7874 a 5.6692863,5.6692863 0 0 1 -5.669288,5.6692 5.6692863,5.6692863 0 0 1 -5.669286,-5.6692 5.6692863,5.6692863 0 0 1 5.669286,-5.6693 5.6692863,5.6692863 0 0 1 5.669288,5.6693 z"
         id="path4290" />
    </g>
    <rect
       ry="1.55022e-14"
       rx="1.55022e-14"
       y="818.50391"
       x="3.7402344e-06"
       height="53.149609"
       width="106.29921"
       id="rect4294"
       style="fill:none;fill-opacity:1;stroke:#000000;stroke-width:0.70899999;stroke-linejoin:miter;stroke-miterlimit:4;stroke-dasharray:none;stroke-dashoffset:0;stroke-opacity:1" />
    <rect
       ry="1.55022e-14"
       rx="1.55022e-14"
       y="829.13385"
       x="23.031498"
       height="31.889763"
       width="60.236221"
       id="rect4296"
       style="fill:none;fill-opacity:1;stroke:#000000;stroke-width:0.70899999;stroke-linejoin:miter;stroke-miterlimit:4;stroke-dasharray:none;stroke-dashoffset:0;stroke-opacity:1" />
    <g
       transform="translate(0,-180.70866)"
       id="g4302">
      <path
         inkscape:connector-curvature="0"
         style="fill:none;fill-opacity:1;stroke:#000000;stroke-width:0.70866144;stroke-linejoin:miter;stroke-miterlimit:4;stroke-dasharray:none;stroke-dashoffset:0;stroke-opacity:1"
         d="m 14.881711,1025.7874 a 5.6692863,5.6692863 0 0 1 -5.6692867,5.6692 5.6692863,5.6692863 0 0 1 -5.6692863,-5.6692 5.6692863,5.6692863 0 0 1 5.6692863,-5.6693 5.6692863,5.6692863 0 0 1 5.6692867,5.6693 z"
         id="path4304" />
      <path
         inkscape:connector-curvature="0"
         style="fill:none;fill-opacity:1;stroke:#000000;stroke-width:0.70866144;stroke-linejoin:miter;stroke-miterlimit:4;stroke-dasharray:none;stroke-dashoffset:0;stroke-opacity:1"
         d="m 102.75608,1025.7874 a 5.6692863,5.6692863 0 0 1 -5.669288,5.6692 5.6692863,5.6692863 0 0 1 -5.669286,-5.6692 5.6692863,5.6692863 0 0 1 5.669286,-5.6693 5.6692863,5.6692863 0 0 1 5.669288,5.6693 z"
         id="path4306" />
    </g>
    <rect
       style="fill:none;fill-opacity:1;stroke:#000000;stroke-width:0.70899999;stroke-linejoin:miter;stroke-miterlimit:4;stroke-dasharray:none;stroke-dashoffset:0;stroke-opacity:1"
       id="rect4310"
       width="106.29921"
       height="53.149609"
       x="3.7402344e-06"
       y="758.2677"
       rx="1.55022e-14"
       ry="1.55022e-14" />
    <rect
       style="fill:none;fill-opacity:1;stroke:#000000;stroke-width:0.70899999;stroke-linejoin:miter;stroke-miterlimit:4;stroke-dasharray:none;stroke-dashoffset:0;stroke-opacity:1"
       id="rect4312"
       width="60.236221"
       height="31.889763"
       x="23.031498"
       y="768.89764"
       rx="1.55022e-14"
       ry="1.55022e-14" />
    <g
       id="g4318"
       transform="translate(0,-240.94488)">
      <path
         id="path4320"
         d="m 14.881711,1025.7874 a 5.6692863,5.6692863 0 0 1 -5.6692867,5.6692 5.6692863,5.6692863 0 0 1 -5.6692863,-5.6692 5.6692863,5.6692863 0 0 1 5.6692863,-5.6693 5.6692863,5.6692863 0 0 1 5.6692867,5.6693 z"
         style="fill:none;fill-opacity:1;stroke:#000000;stroke-width:0.70866144;stroke-linejoin:miter;stroke-miterlimit:4;stroke-dasharray:none;stroke-dashoffset:0;stroke-opacity:1"
         inkscape:connector-curvature="0" />
      <path
         id="path4322"
         d="m 102.75608,1025.7874 a 5.6692863,5.6692863 0 0 1 -5.669288,5.6692 5.6692863,5.6692863 0 0 1 -5.669286,-5.6692 5.6692863,5.6692863 0 0 1 5.669286,-5.6693 5.6692863,5.6692863 0 0 1 5.669288,5.6693 z"
         style="fill:none;fill-opacity:1;stroke:#000000;stroke-width:0.70866144;stroke-linejoin:miter;stroke-miterlimit:4;stroke-dasharray:none;stroke-dashoffset:0;stroke-opacity:1"
         inkscape:connector-curvature="0" />
    </g>
  </g>
  <g
     inkscape:groupmode="layer"
     id="layer2"
     inkscape:label="Etch">
    <g
       style="font-style:normal;font-variant:normal;font-weight:normal;font-stretch:normal;font-size:15px;line-height:125%;font-family:'DIN 6776';-inkscape-font-specification:'DIN 6776, ';text-align:start;letter-spacing:0px;word-spacing:0px;text-anchor:start;fill:none;fill-opacity:1;stroke:#ff794b;stroke-width:0.35433072;stroke-linecap:butt;stroke-linejoin:miter;stroke-miterlimit:4;stroke-dasharray:none;stroke-opacity:1"
       id="text4150">
      <path
         d="m 122.00481,1043.6187 0,1.1206 q 0,1.2304 -0.43945,2.2192 -0.27832,0.6372 -0.62256,0.9888 -0.34424,0.3442 -0.6958,0.6152 -0.10986,0.073 -0.22705,0.1025 -0.11719,0.022 -0.21973,0.095 -0.10986,0.066 -0.25634,0.066 -0.14649,0.01 -0.26368,0.01 -0.50537,0 -0.95947,-0.3516 -0.74707,-0.5566 -1.06933,-1.9043 -0.32227,-1.3183 -0.32227,-3.0029 0,-2.1826 0.76904,-3.7207 0.45411,-0.9155 1.05469,-1.3843 0.60791,-0.4687 1.27442,-0.3222 0.28564,0.066 0.57861,0.1831 0.30029,0.1172 0.54199,0.4028 0.31494,0.3809 0.5127,0.8203 0.32959,0.7691 0.33691,1.8897 0.007,1.1206 0.007,2.1753 z m -4.02832,-0.066 0.022,0.7032 q 0,0.6884 0.13183,1.3989 0.0366,0.1977 0.0732,0.4541 0.0439,0.249 0.11719,0.4101 0.12451,0.2857 0.24903,0.586 0.12451,0.2929 0.30029,0.4541 0.4248,0.4175 0.85693,0.095 0.32959,-0.249 0.63721,-0.6958 0.30762,-0.4468 0.4834,-1.1426 0.10986,-0.4468 0.10986,-1.2378 l 0,-2.3657 q 0,-0.8203 -0.0952,-1.604 -0.0952,-0.7837 -0.49073,-1.1719 -0.57861,-0.5566 -1.1206,0 -0.32959,0.3296 -0.63721,0.9448 -0.30029,0.608 -0.43213,1.2964 -0.0879,0.4175 -0.14648,0.9009 -0.0586,0.4834 -0.0586,0.9741 z"
         style=""
         id="path4435" />
    </g>
    <g
       style="font-style:normal;font-variant:normal;font-weight:normal;font-stretch:normal;font-size:15px;line-height:125%;font-family:'DIN 6776';-inkscape-font-specification:'DIN 6776, ';text-align:start;letter-spacing:0px;word-spacing:0px;text-anchor:start;fill:none;fill-opacity:1;stroke:#ff784a;stroke-width:0.35433071;stroke-linecap:butt;stroke-linejoin:miter;stroke-miterlimit:4;stroke-dasharray:none;stroke-opacity:1"
       id="text4142">
      <path
         d="m 5.6453578,1039.9126 q -0.00732,-0.01 -0.05127,0.037 l -0.102539,0.081 -0.300293,0.3003 -0.366211,0.3662 -0.3442382,0.3369 q -0.131836,0.1831 -0.2856446,0.1831 -0.1538086,0 -0.3149414,-0.029 -0.1611328,-0.037 -0.2929687,-0.293 -0.095215,-0.2197 0.014648,-0.4028 l 0.3222656,-0.3808 0.2416993,-0.2198 0.2563476,-0.2563 0.2856445,-0.2783 q 0.1098633,-0.1758 0.2416993,-0.2491 0.1391601,-0.073 0.2563476,-0.249 l 0.3588867,-0.3442 q 0.05127,-0.088 0.1171875,-0.1245 0.065918,-0.044 0.131836,-0.1392 0.065918,-0.095 0.1757812,-0.095 l 0.2783203,-0.022 0.2929688,0.1392 q 0.080566,0 0.1318359,0.2417 0.014648,0.1245 0.00732,0.4101 0,0.2783 0,0.4322 l 0,2.0947 0,5.9253 q 0,0.2563 0,0.6518 0.00732,0.3955 -0.05127,0.5054 -0.1391601,0.2856 -0.4760742,0.2856 -0.1318359,0 -0.2783203,-0.051 -0.1391602,-0.059 -0.234375,-0.3296 -0.021973,-0.059 -0.021973,-0.271 0.00732,-0.2197 0.00732,-0.3296 l 0,-2.2046 0,-5.7202 z"
         style="fill:none;stroke:#ff784a;stroke-width:0.35433071;stroke-miterlimit:4;stroke-dasharray:none;stroke-opacity:1"
         id="path4432" />
    </g>
    <g
       style="font-style:normal;font-variant:normal;font-weight:normal;font-stretch:normal;font-size:15px;line-height:125%;font-family:'DIN 6776';-inkscape-font-specification:'DIN 6776, ';text-align:start;letter-spacing:0px;word-spacing:0px;text-anchor:start;fill:none;fill-opacity:1;stroke:#ff794b;stroke-width:0.35433072;stroke-linecap:butt;stroke-linejoin:miter;stroke-miterlimit:4;stroke-dasharray:none;stroke-opacity:1"
       id="text4186">
      <path
         d="m 7.6961391,988.14319 -0.3515625,0.21973 q -0.3295898,0.19775 -0.5859375,0.19775 l -2.6879883,0.022 q -0.1318359,0 -0.3295898,-0.0952 -0.1977539,-0.0952 -0.1977539,-0.42481 0,-0.2417 0.1391601,-0.36621 0.1391602,-0.13183 0.2416992,-0.13183 l 2.1240235,-0.022 q 0.2783203,0 0.5566406,-0.0293 0.2856445,-0.0293 0.5200195,-0.25635 0.1684571,-0.16113 0.3808594,-0.52002 0.2197266,-0.35889 0.2197266,-0.79834 l 0,-1.72119 q 0,-0.32959 -0.1538086,-0.57862 -0.1464844,-0.25634 -0.2929688,-0.28564 l -0.6445312,-0.11719 -1.6772461,-0.022 q -0.1098633,0 -0.2856445,-0.0879 -0.1757813,-0.0952 -0.1904297,-0.37354 -0.014648,-0.30761 0.1538086,-0.43213 0.168457,-0.12451 0.2783203,-0.12451 l 1.3256836,-0.022 q 0.3955078,0 0.7836914,-0.16846 0.3955078,-0.17578 0.6225586,-0.91552 0.1538086,-0.50538 0.043945,-1.08399 -0.1025391,-0.57861 -0.3588867,-0.83496 -0.2416993,-0.21973 -0.534668,-0.22705 -0.2856445,-0.0147 -0.5566406,-0.0147 l -1.8090821,0 q -0.2197265,0 -0.4321289,-0.007 -0.2124023,-0.0147 -0.3881836,-0.23438 -0.1098632,-0.14648 -0.043945,-0.37353 0.065918,-0.22705 0.1464844,-0.30762 0.1245117,-0.11719 0.3735352,-0.11719 l 2.1240234,0 q 0.6445312,0 1.2524414,0.15381 0.6079102,0.15381 1.0693359,1.06934 0.1904297,0.3955 0.2416993,1.01074 0.051269,0.61523 -0.065918,1.11328 -0.051269,0.21973 -0.1611328,0.50537 -0.1098633,0.28565 -0.2270508,0.43213 l -0.3222656,0.40283 q 0.1318359,0.13184 0.2709961,0.25635 0.1391601,0.11719 0.2636718,0.32227 0.2197266,0.41015 0.234375,1.00341 0.014648,0.59327 0.014648,1.36231 0,1.06933 -0.3588867,1.70654 -0.3515625,0.63721 -0.7250977,0.91553 z"
         style=""
         id="path4438" />
    </g>
    <g
       style="font-style:normal;font-variant:normal;font-weight:normal;font-stretch:normal;font-size:15px;line-height:125%;font-family:'DIN 6776';-inkscape-font-specification:'DIN 6776, ';text-align:start;letter-spacing:0px;word-spacing:0px;text-anchor:start;fill:none;fill-opacity:1;stroke:#ff794b;stroke-width:0.35433072;stroke-linecap:butt;stroke-linejoin:miter;stroke-miterlimit:4;stroke-dasharray:none;stroke-opacity:1"
       id="text4202">
      <path
         d="m 6.9344203,928.23657 q -0.2197265,0.0293 -0.4394531,0.0586 -0.2197265,0.0293 -0.4394531,0.0513 l -1.0986328,0 -1.0400391,-0.022 q -0.102539,0 -0.2783203,-0.20508 -0.168457,-0.2124 -0.05127,-0.49804 0.1391601,-0.33692 0.4394531,-0.32227 0.300293,0.007 0.534668,0.007 l 1.2304687,0 q 0.4174805,0 0.8129883,-0.0659 0.402832,-0.0659 0.7324219,-0.47608 0.234375,-0.29296 0.234375,-0.90087 l 0,-1.58204 q 0,-0.29296 -0.00732,-0.60791 0,-0.31494 -0.1538086,-0.46875 -0.3808594,-0.38086 -0.9155274,-0.38086 l -2.5927734,-0.022 q -0.3588867,0 -0.3588867,-0.6958 l 0,-1.08398 0,-2.71729 q 0,-0.37353 0.168457,-0.51269 0.168457,-0.14649 0.3222656,-0.14649 l 0.6518555,0 1.6113281,0 1.7651367,0.0732 q 0.073242,0.007 0.1684571,0.19043 0.095215,0.17579 0.05127,0.35157 -0.1025391,0.41748 -0.5053711,0.41748 l -0.8496094,0 -2.1020508,0 q -0.234375,0 -0.234375,0.10254 l 0,0.84228 0,1.99951 q 0,0.19776 0.1391602,0.18311 0.1464844,-0.022 0.234375,-0.022 l 0.6884766,0 q 0.6738281,0 1.3549804,0.0513 0.6811524,0.0513 1.2231446,0.71044 0.102539,0.12452 0.2416992,0.39551 0.1391601,0.271 0.1464844,0.60059 l 0,1.50146 q 0,0.4834 -0.00732,0.93018 -0.00732,0.44678 -0.1171875,0.82764 -0.1464843,0.46142 -0.402832,0.70312 -0.6152344,0.60059 -1.1572266,0.73242 z"
         style=""
         id="path4441" />
    </g>
    <g
       style="font-style:normal;font-variant:normal;font-weight:normal;font-stretch:normal;font-size:15px;line-height:125%;font-family:'DIN 6776';-inkscape-font-specification:'DIN 6776, ';text-align:start;letter-spacing:0px;word-spacing:0px;text-anchor:start;fill:none;fill-opacity:1;stroke:#ff794b;stroke-width:0.35433072;stroke-linecap:butt;stroke-linejoin:miter;stroke-miterlimit:4;stroke-dasharray:none;stroke-opacity:1"
       id="text4218">
      <path
         d="m 122.04144,988.01868 q 0,0.27099 -0.2124,0.46142 -0.10986,0.10254 -0.27832,0.10254 -0.16846,0 -0.30029,0 l -0.6958,0 -3.15674,0 q -0.10254,0 -0.24903,-0.0806 -0.14648,-0.0806 -0.19042,-0.27833 -0.0586,-0.28564 0.0806,-0.49072 0.13916,-0.2124 0.22705,-0.38818 l 0.85694,-1.44287 0.98144,-1.6626 1.12793,-1.91895 q 0.17578,-0.35156 0.41016,-0.67382 0.2417,-0.32959 0.38086,-0.78369 0.0952,-0.31495 0,-0.73975 -0.0879,-0.32959 -0.24903,-0.53467 -0.15381,-0.2124 -0.30029,-0.36621 -0.22705,-0.20508 -0.41016,-0.2417 l -1.04736,0 q -0.19775,0.0439 -0.38086,0.19043 -0.17578,0.14648 -0.34424,0.30762 -0.13916,0.13916 -0.2417,0.43213 -0.10254,0.29297 -0.22705,0.41015 -0.41748,0.41748 -0.80566,-0.0806 -0.10986,-0.13184 -0.0659,-0.35157 0.0439,-0.22705 0.10986,-0.36621 0.12452,-0.24902 0.26368,-0.4834 0.13916,-0.24169 0.29296,-0.3955 0.50538,-0.49073 1.06934,-0.62256 0.57129,-0.13916 1.17188,-0.13916 0.44677,0 0.84961,0.26367 0.41015,0.26367 0.78369,0.63721 0.13183,0.13183 0.2417,0.36621 0.11718,0.23437 0.22705,0.4541 0.32226,0.73975 0.0806,1.53809 -0.13183,0.43945 -0.35156,0.78369 -0.2124,0.34424 -0.39551,0.67382 l -0.84228,1.4209 -0.57129,0.95948 -0.89356,1.52343 -0.60058,1.01807 q 0.0513,0.0439 0.14648,0.0366 0.10254,-0.0146 0.16846,-0.0146 l 0.60059,0 1.80908,0 q 0.14648,0 0.33691,-0.0146 0.19043,-0.0146 0.32227,0.0732 0.0659,0.0439 0.16845,0.13916 0.10254,0.0879 0.10254,0.27832 z"
         style=""
         id="path4444" />
    </g>
    <g
       style="font-style:normal;font-variant:normal;font-weight:normal;font-stretch:normal;font-size:15px;line-height:125%;font-family:'DIN 6776';-inkscape-font-specification:'DIN 6776, ';text-align:start;letter-spacing:0px;word-spacing:0px;text-anchor:start;fill:none;fill-opacity:1;stroke:#ff794b;stroke-width:0.35433072;stroke-linecap:butt;stroke-linejoin:miter;stroke-miterlimit:4;stroke-dasharray:none;stroke-opacity:1"
       id="text4234">
      <path
         d="m 119.11176,921.98169 -0.0733,0.19775 -0.10986,0.38086 -0.33691,1.12061 -0.42481,1.3623 q 0.022,0.022 0.26367,0.022 l 0.50537,0 1.53077,0 q 0.0513,0 0.0513,-0.12452 0,-0.12451 0,-0.21972 l 0,-0.73975 q 0,-0.19043 0,-0.4541 0,-0.271 0.0879,-0.38086 0.3955,-0.46875 0.80566,-0.0806 0.16846,0.16114 0.16846,0.67383 l 0,0.84229 q 0,0.13916 -0.0147,0.31494 -0.007,0.16846 0.0806,0.16846 l 0.32226,0 0.82031,0.022 q 0.12451,0 0.31494,0.17578 0.19776,0.17578 0.0952,0.52002 -0.10254,0.32226 -0.41748,0.32226 l -1.10596,0.022 q -0.0952,0 -0.0952,0.25634 l 0,0.43946 q 0,0.43945 -0.007,0.92285 -0.007,0.4834 -0.27832,0.54199 -0.19775,0.0439 -0.49072,0.007 -0.28564,-0.0439 -0.28564,-0.62989 l 0,-1.30371 q 0,-0.20508 -0.044,-0.21972 -0.0439,-0.0146 -0.13916,-0.0146 l -0.71777,0 -1.86036,0 q -0.13183,0 -0.29296,0.007 -0.16114,0 -0.271,-0.0879 -0.0513,-0.0293 -0.14648,-0.0952 -0.0952,-0.0733 -0.0952,-0.18311 -0.022,-0.21973 0.0293,-0.41016 0.0513,-0.19043 0.10986,-0.37353 l 1.42822,-4.6582 0.43213,-1.4209 q 0.0806,-0.2124 0.13916,-0.4834 0.0586,-0.27832 0.16114,-0.47608 0.10986,-0.24169 0.34423,-0.29296 0.2417,-0.0513 0.41016,0.0659 0.0586,0.0513 0.16846,0.18311 0.10986,0.12451 0.0659,0.32227 l -0.4834,1.59667 -0.50537,1.68458 q -0.022,0.0879 -0.0806,0.24169 -0.0586,0.14649 -0.0586,0.23438 z"
         style=""
         id="path4447" />
    </g>
    <g
       style="font-style:normal;font-variant:normal;font-weight:normal;font-stretch:normal;font-size:15px;line-height:125%;font-family:'DIN 6776';-inkscape-font-specification:'DIN 6776, ';text-align:start;letter-spacing:0px;word-spacing:0px;text-anchor:start;fill:none;fill-opacity:1;stroke:#ff794b;stroke-width:0.35433072;stroke-linecap:butt;stroke-linejoin:miter;stroke-miterlimit:4;stroke-dasharray:none;stroke-opacity:1"
       id="text4250">
      <path
         d="m 120.95746,864.92413 0,-1.56006 q -0.007,-0.17578 -0.11719,-0.30029 -0.10254,-0.13183 -0.16113,-0.19775 -0.28565,-0.28565 -0.86426,-0.28565 -0.39551,0 -0.81299,0.007 -0.41748,0.007 -0.74707,0.33691 -0.0659,0.0659 -0.16846,0.19776 -0.0952,0.12451 -0.0952,0.30029 l 0,1.88232 q 0,0.21241 -0.007,0.4834 -0.007,0.271 0.0732,0.41748 0.43213,0.86426 1.27441,0.86426 l 0.97412,-0.20508 q 0.16846,-0.0732 0.46143,-0.43945 0.1831,-0.21973 0.1831,-0.65186 0.007,-0.43945 0.007,-0.84961 z m 1.04736,-0.0806 0,0.98144 q 0,0.59326 -0.2417,0.98877 -0.2417,0.39551 -0.46142,0.61524 -0.50537,0.49072 -1.14258,0.62255 l -1.08399,0.0366 q -0.21972,-0.0439 -0.4541,-0.0733 -0.23437,-0.0366 -0.43213,-0.19043 l -0.43213,-0.29296 -0.46875,-0.52735 q -0.32958,-0.41748 -0.34423,-1.16455 -0.0147,-0.74707 -0.0147,-1.47217 0,-0.52734 0.007,-1.06201 0.007,-0.54199 0.10987,-0.98144 0.16845,-0.69581 0.56396,-1.48682 0.18311,-0.37354 0.38086,-0.73975 0.19775,-0.36621 0.41748,-0.57861 l 0.89356,-0.95947 0.61523,-0.60059 q 0.14648,-0.10986 0.31494,-0.32226 0.17578,-0.21973 0.34424,-0.21973 0.16113,0 0.38086,0.0439 0.22705,0.0439 0.29297,0.41748 0.022,0.18311 -0.0879,0.32227 -0.10987,0.13184 -0.15381,0.15381 -0.13184,0.0952 -0.25635,0.25635 -0.11719,0.16113 -0.2417,0.24902 l -1.24512,1.25977 q -0.2417,0.2417 -0.46142,0.67382 -0.21973,0.42481 -0.41748,0.82764 -0.0293,-0.022 0.13183,-0.022 l 0.2417,-0.0366 0.71778,-0.022 0.86425,0.0439 q 0.24903,0 0.46875,0.13916 0.26368,0.19775 0.52735,0.35156 0.26367,0.15381 0.4834,0.58594 0.1831,0.38818 0.1831,1.02539 l 0,1.15723 z"
         style=""
         id="path4450" />
    </g>
    <g
       style="font-style:normal;font-variant:normal;font-weight:normal;font-stretch:normal;font-size:15px;line-height:125%;font-family:'DIN 6776';-inkscape-font-specification:'DIN 6776, ';text-align:start;letter-spacing:0px;word-spacing:0px;text-anchor:start;fill:none;fill-opacity:1;stroke:#ff794b;stroke-width:0.35433072;stroke-linecap:butt;stroke-linejoin:miter;stroke-miterlimit:4;stroke-dasharray:none;stroke-opacity:1"
       id="text4282">
      <path
         d="m 120.95013,799.91254 0,-0.34424 q 0,-0.19043 -0.0659,-0.36621 -0.0659,-0.17578 -0.13184,-0.31494 -0.34424,-0.65918 -1.01074,-0.65918 l -0.62256,0.0806 q -0.22705,0.0439 -0.46875,0.39551 -0.2417,0.34424 -0.26367,0.82764 -0.022,0.41748 0.0586,0.81299 0.0879,0.38818 0.29297,0.58593 0.32227,0.31494 0.76904,0.38819 0.44678,0.0659 0.80567,-0.21241 0.17578,-0.13183 0.40283,-0.41748 0.23437,-0.29296 0.23437,-0.77636 z m 0.007,4.62158 q 0,-0.41748 0,-0.83496 0,-0.42481 -0.14649,-0.7251 -0.30029,-0.58594 -0.72509,-0.60059 -0.42481,-0.022 -0.83496,-0.022 -0.10254,0 -0.18311,0.0586 -0.0806,0.0586 -0.16113,0.0806 -0.10987,0.0439 -0.21241,0.19043 -0.0952,0.14649 -0.1831,0.24902 -0.30762,0.38086 -0.46875,1.11329 -0.15381,0.73242 0.0146,1.3916 0.30029,1.20849 0.97412,1.34033 l 0.52002,0.0586 q 0.52734,0 0.88623,-0.34423 0.15381,-0.14649 0.32226,-0.38819 0.16846,-0.2417 0.19043,-0.65185 l 0.007,-0.91553 z m 0.27832,-2.82715 q -0.007,0 -0.0293,0.0366 -0.0147,0.0293 -0.0147,0.0293 0.18311,0.17578 0.39551,0.44678 0.2124,0.27099 0.32227,0.68847 0.0659,0.28565 0.0806,0.57129 0.0146,0.28565 0.0146,0.62988 0,0.542 0,1.15723 0.007,0.61523 -0.16846,1.00342 -0.25634,0.57861 -0.57861,0.90088 -0.52002,0.51269 -1.17187,0.6372 -0.64453,0.11719 -1.25977,-0.0146 -0.32959,-0.0659 -0.82031,-0.43946 -0.2417,-0.17578 -0.49805,-0.52734 -0.24902,-0.35889 -0.39551,-0.85693 l -0.12451,-0.55665 q -0.0439,-0.19775 -0.0513,-0.4541 0,-0.25634 0,-0.46875 0,-0.40283 0.10254,-0.80566 0.10986,-0.41016 0.2417,-0.71045 0.17578,-0.40283 0.38818,-0.68115 0.21973,-0.28565 0.43946,-0.50537 -0.28565,-0.25635 -0.49073,-0.67383 -0.43945,-0.87891 -0.24169,-1.94092 0.13183,-0.67383 0.4248,-1.05469 0.29297,-0.38086 0.60059,-0.60791 0.2417,-0.19775 0.52734,-0.23437 0.28564,-0.0439 0.57129,-0.10987 l 0.55664,0.0439 0.64453,0.21973 q 0.19043,0.0879 0.37354,0.25634 0.1831,0.16846 0.36621,0.34424 0.13916,0.13184 0.26367,0.41748 0.12451,0.27832 0.2124,0.542 0.0586,0.19775 0.0879,0.56396 0.0293,0.35889 -0.0146,0.59326 -0.0659,0.32959 -0.1831,0.67383 -0.10987,0.34424 -0.27832,0.54932 -0.0439,0.0659 -0.13916,0.20507 -0.0952,0.13184 -0.15381,0.13184 z"
         style=""
         id="path4453" />
    </g>
    <g
       style="font-style:normal;font-variant:normal;font-weight:normal;font-stretch:normal;font-size:15px;line-height:125%;font-family:'DIN 6776';-inkscape-font-specification:'DIN 6776, ';text-align:start;letter-spacing:0px;word-spacing:0px;text-anchor:start;fill:none;fill-opacity:1;stroke:#ff794b;stroke-width:0.35433072;stroke-linecap:butt;stroke-linejoin:miter;stroke-miterlimit:4;stroke-dasharray:none;stroke-opacity:1"
       id="text4298">
      <path
         d="m 8.7435036,857.90753 0.014648,0.27832 0.00732,0.55664 q 0.00732,0.21973 -0.036621,0.35889 -0.043945,0.13916 -0.087891,0.30029 l -0.3735351,1.16455 -0.3515625,1.07666 q 0.021973,0.022 0.168457,0.022 l 0.3295898,0.10254 q 0.1098633,0.0439 0.1831055,0.25634 0.073242,0.20508 -0.00732,0.40283 -0.1171875,0.25635 -0.3295899,0.27833 -0.2124023,0.022 -0.3808593,0.022 -0.095215,0 -0.2050782,0 -0.1098632,-0.007 -0.1538086,0.13916 l -0.3149414,0.95947 -0.3808593,1.20117 -0.4760743,1.47949 -0.3735351,1.14258 q -0.080566,0.31494 -0.2709961,0.38819 -0.1831055,0.0732 -0.3515625,0.0513 -0.095215,-0.0147 -0.2636719,-0.10254 -0.1611328,-0.0952 -0.1757812,-0.35889 -0.00732,-0.14648 0.058594,-0.33691 0.073242,-0.19776 0.1171875,-0.32227 l 0.9155274,-2.8418 0.4541015,-1.37695 q -0.058594,-0.0439 -0.1318359,-0.0146 -0.073242,0.022 -0.1171875,-0.007 -0.1171875,-0.0732 -0.2636719,-0.0806 -0.1464844,-0.007 -0.2124023,-0.27832 -0.087891,-0.34424 0.1245117,-0.54199 0.1611328,-0.16113 0.3808594,-0.16113 0.2270507,0 0.4248046,0 0.1171875,0 0.234375,-0.27832 l 0.2050782,-0.64454 0.3808593,-1.17919 q 0.058594,-0.19043 0.1464844,-0.42481 0.087891,-0.23437 0.087891,-0.47607 0,-0.21973 -0.1098632,-0.21973 l -0.5419922,0 -1.772461,0 -1.4575195,-0.0366 q -0.095215,-0.0146 -0.2270508,-0.21973 -0.1245117,-0.2124 -0.036621,-0.43945 0.1464844,-0.34424 0.4833985,-0.34424 l 3.5229492,0 0.7250976,0 q 0.1025391,0.022 0.2709961,0.12451 0.1684571,0.0952 0.1684571,0.38086 z"
         style=""
         id="path4456" />
    </g>
    <g
       style="font-style:normal;font-variant:normal;font-weight:normal;font-stretch:normal;font-size:15px;line-height:125%;font-family:'DIN 6776';-inkscape-font-specification:'DIN 6776, ';text-align:start;letter-spacing:0px;word-spacing:0px;text-anchor:start;fill:none;fill-opacity:1;stroke:#ff794b;stroke-width:0.35433072;stroke-linecap:butt;stroke-linejoin:miter;stroke-miterlimit:4;stroke-dasharray:none;stroke-opacity:1"
       id="text4314">
      <path
         d="m 4.5906715,800.30072 0,1.56006 q 0,0.1831 0.1025391,0.31494 0.1098633,0.13184 0.1757813,0.19043 0.2783203,0.27832 0.8569335,0.27832 0.3955079,0 0.8129883,-0.007 0.4174805,-0.007 0.7470703,-0.33692 0.065918,-0.0586 0.1684571,-0.1831 0.102539,-0.13184 0.102539,-0.31494 l 0,-1.88233 q 0,-0.20508 0,-0.47607 0,-0.271 -0.073242,-0.42481 -0.4248046,-0.85693 -1.2670898,-0.85693 l -0.9814453,0.19775 q -0.1611328,0.0806 -0.4614258,0.43946 -0.1904297,0.22705 -0.1904297,0.6665 0.00732,0.43213 0.00732,0.83496 z m -1.0473632,0.0806 0,-0.98145 q 0,-0.57861 0.234375,-0.97412 0.2416992,-0.39551 0.46875,-0.62988 0.4907226,-0.47608 1.1425781,-0.61524 l 1.0766601,-0.0439 q 0.2197266,0.0439 0.4541016,0.0806 0.234375,0.0293 0.4394531,0.18311 l 0.4248047,0.30029 0.46875,0.52002 q 0.3369141,0.41748 0.3515625,1.17188 0.014648,0.74707 0.014648,1.47217 0,0.52734 -0.00732,1.06933 -0.00732,0.53467 -0.1171875,0.9668 -0.1611328,0.6958 -0.5566406,1.48681 -0.1904297,0.37354 -0.3881836,0.74707 -0.1977539,0.36622 -0.4101562,0.57129 l -0.8935547,0.9668 -0.6225586,0.59326 q -0.1538086,0.10987 -0.3295899,0.32959 -0.168457,0.2124 -0.3295898,0.2124 -0.168457,0 -0.3881836,-0.0366 -0.2124023,-0.0439 -0.2783203,-0.41748 -0.036621,-0.17578 0.073242,-0.31494 0.1098633,-0.13916 0.168457,-0.16846 0.1245117,-0.0879 0.2416992,-0.24902 0.1245117,-0.16113 0.2563477,-0.25635 l 1.237793,-1.25976 q 0.2416992,-0.23438 0.4541015,-0.65918 0.2197266,-0.43213 0.4248047,-0.84229 0.029297,0.022 -0.1245117,0.022 l -0.2416992,0.0366 -0.7250977,0.022 -0.8569336,-0.0366 q -0.2563476,0 -0.46875,-0.14649 -0.2709961,-0.19043 -0.534668,-0.34423 -0.2563476,-0.15381 -0.4760742,-0.59327 -0.1831054,-0.36621 -0.1831054,-1.01806 l 0,-1.16455 z"
         style=""
         id="path4459" />
    </g>
  </g>
</svg>
