<?xml version="1.0" encoding="UTF-8" standalone="no"?>
<!-- Created with Inkscape (http://www.inkscape.org/) -->

<svg
   xmlns:dc="http://purl.org/dc/elements/1.1/"
   xmlns:cc="http://creativecommons.org/ns#"
   xmlns:rdf="http://www.w3.org/1999/02/22-rdf-syntax-ns#"
   xmlns:svg="http://www.w3.org/2000/svg"
   xmlns="http://www.w3.org/2000/svg"
   xmlns:sodipodi="http://sodipodi.sourceforge.net/DTD/sodipodi-0.dtd"
   xmlns:inkscape="http://www.inkscape.org/namespaces/inkscape"
   width="210mm"
   height="297mm"
   viewBox="0 0 744.09448819 1052.3622047"
   id="svg2"
   version="1.1"
   inkscape:version="0.91 r13725"
   sodipodi:docname="powerpole_holder_round.svg">
  <sodipodi:namedview
     id="base"
     pagecolor="#ffffff"
     bordercolor="#666666"
     borderopacity="1.0"
     inkscape:pageopacity="0.0"
     inkscape:pageshadow="2"
     inkscape:zoom="2.1300854"
     inkscape:cx="171.85039"
     inkscape:cy="260.43332"
     inkscape:document-units="mm"
     inkscape:current-layer="layer1"
     showgrid="true"
     inkscape:snap-bbox="true"
     inkscape:snap-text-baseline="true"
     inkscape:window-width="2560"
     inkscape:window-height="1315"
     inkscape:window-x="0"
     inkscape:window-y="1"
     inkscape:window-maximized="1"
     inkscape:snap-grids="true"
     inkscape:object-paths="true"
     inkscape:snap-intersection-paths="true"
     inkscape:object-nodes="true"
     inkscape:snap-smooth-nodes="true"
     inkscape:snap-midpoints="true">
    <inkscape:grid
       type="xygrid"
       id="grid4136"
       units="mm"
       spacingx="3.5433071"
       spacingy="3.5433072" />
  </sodipodi:namedview>
  <defs
     id="defs4" />
  <metadata
     id="metadata7">
    <rdf:RDF>
      <cc:Work
         rdf:about="">
        <dc:format>image/svg+xml</dc:format>
        <dc:type
           rdf:resource="http://purl.org/dc/dcmitype/StillImage" />
        <dc:title></dc:title>
      </cc:Work>
    </rdf:RDF>
  </metadata>
  <g
     inkscape:groupmode="layer"
     id="layer3"
     inkscape:label="Frame"
     style="display:inline">
    <path
       style="fill:none;fill-opacity:1;stroke:#000000;stroke-width:0.70866144;stroke-linejoin:miter;stroke-miterlimit:4;stroke-dasharray:none;stroke-dashoffset:0;stroke-opacity:1"
       d="m 9.4980478e-4,956.69226 0,95.66994 166.53515019522,0 0,-95.66994 -60.23633,0 0,56.47654 -46.06445,0 0,-56.47654 -60.23437019522,0 z"
       id="rect6542"
       inkscape:connector-curvature="0" />
    <rect
       ry="6.8963699e-13"
       rx="6.8963699e-13"
       y="850.39313"
       x="9.8559099e-09"
       height="95.669289"
       width="166.53543"
       id="rect6564"
       style="fill:none;fill-opacity:1;stroke:#000000;stroke-width:0.70866144;stroke-linejoin:miter;stroke-miterlimit:4;stroke-dasharray:none;stroke-dashoffset:0;stroke-opacity:1" />
    <rect
       style="fill:none;fill-opacity:1;stroke:#000000;stroke-width:0.70866144;stroke-linejoin:miter;stroke-miterlimit:4;stroke-dasharray:none;stroke-dashoffset:0;stroke-opacity:1"
       id="rect6592"
       width="166.53543"
       height="95.669289"
       x="9.8559099e-09"
       y="744.09393"
       rx="6.8963699e-13"
       ry="6.8963699e-13" />
    <rect
       ry="6.8963699e-13"
       rx="6.8963699e-13"
       y="637.79474"
       x="9.8559099e-09"
       height="95.669289"
       width="166.53543"
       id="rect6608"
       style="fill:none;fill-opacity:1;stroke:#000000;stroke-width:0.70866144;stroke-linejoin:miter;stroke-miterlimit:4;stroke-dasharray:none;stroke-dashoffset:0;stroke-opacity:1" />
    <rect
       style="fill:none;fill-opacity:1;stroke:#000000;stroke-width:0.70866144;stroke-linejoin:miter;stroke-miterlimit:4;stroke-dasharray:none;stroke-dashoffset:0;stroke-opacity:1"
       id="rect6624"
       width="166.53543"
       height="95.669289"
       x="9.8559099e-09"
       y="531.49554"
       rx="6.8963699e-13"
       ry="6.8963699e-13" />
    <rect
       ry="6.8963699e-13"
       rx="6.8963699e-13"
       y="956.69293"
       x="177.16534"
       height="95.669289"
       width="166.53543"
       id="rect6640"
       style="fill:none;fill-opacity:1;stroke:#000000;stroke-width:0.70866144;stroke-linejoin:miter;stroke-miterlimit:4;stroke-dasharray:none;stroke-dashoffset:0;stroke-opacity:1" />
    <rect
       style="fill:none;fill-opacity:1;stroke:#000000;stroke-width:0.70866144;stroke-linejoin:miter;stroke-miterlimit:4;stroke-dasharray:none;stroke-dashoffset:0;stroke-opacity:1"
       id="rect6656"
       width="166.53543"
       height="95.669289"
       x="177.16534"
       y="850.39368"
       rx="6.8963699e-13"
       ry="6.8963699e-13" />
    <rect
       ry="6.8963699e-13"
       rx="6.8963699e-13"
       y="744.09448"
       x="177.16534"
       height="95.669289"
       width="166.53543"
       id="rect6672"
       style="fill:none;fill-opacity:1;stroke:#000000;stroke-width:0.70866144;stroke-linejoin:miter;stroke-miterlimit:4;stroke-dasharray:none;stroke-dashoffset:0;stroke-opacity:1" />
    <rect
       style="fill:none;fill-opacity:1;stroke:#000000;stroke-width:0.70866144;stroke-linejoin:miter;stroke-miterlimit:4;stroke-dasharray:none;stroke-dashoffset:0;stroke-opacity:1"
       id="rect6688"
       width="166.53543"
       height="95.669289"
       x="177.16534"
       y="637.79529"
       rx="6.8963699e-13"
       ry="6.8963699e-13" />
    <rect
       ry="6.8963699e-13"
       rx="6.8963699e-13"
       y="531.49609"
       x="177.16534"
       height="95.669289"
       width="166.53543"
       id="rect6704"
       style="fill:none;fill-opacity:1;stroke:#000000;stroke-width:0.70866144;stroke-linejoin:miter;stroke-miterlimit:4;stroke-dasharray:none;stroke-dashoffset:0;stroke-opacity:1" />
  </g>
  <g
     inkscape:label="Cut"
     inkscape:groupmode="layer"
     id="layer1"
     style="display:inline">
    <g
       transform="translate(-642.93311,465.93474)"
       id="g5462">
      <path
         id="path5404"
         d="m 661.00396,538.58264 a 5.4921207,5.4921217 0 0 1 -5.49212,5.49212 5.4921207,5.4921217 0 0 1 -5.49212,-5.49212 5.4921207,5.4921217 0 0 1 5.49212,-5.49212 5.4921207,5.4921217 0 0 1 5.49212,5.49212 z"
         style="fill:none;fill-opacity:1;stroke:#008000;stroke-width:0.70866144;stroke-linejoin:miter;stroke-miterlimit:4;stroke-dasharray:none;stroke-dashoffset:0;stroke-opacity:1"
         inkscape:connector-curvature="0" />
      <path
         id="ellipse5406"
         d="m 802.7362,538.58264 a 5.4921207,5.4921217 0 0 1 -5.49212,5.49212 5.4921207,5.4921217 0 0 1 -5.49212,-5.49212 5.4921207,5.4921217 0 0 1 5.49212,-5.49212 5.4921207,5.4921217 0 0 1 5.49212,5.49212 z"
         style="fill:none;fill-opacity:1;stroke:#008000;stroke-width:0.70866144;stroke-linejoin:miter;stroke-miterlimit:4;stroke-dasharray:none;stroke-dashoffset:0;stroke-opacity:1"
         inkscape:connector-curvature="0" />
    </g>
    <g
       id="g6554"
       transform="translate(-642.93311,359.63553)">
      <path
         inkscape:connector-curvature="0"
         style="fill:none;fill-opacity:1;stroke:#008000;stroke-width:0.70866144;stroke-linejoin:miter;stroke-miterlimit:4;stroke-dasharray:none;stroke-dashoffset:0;stroke-opacity:1"
         d="m 661.00396,538.58264 a 5.4921207,5.4921217 0 0 1 -5.49212,5.49212 5.4921207,5.4921217 0 0 1 -5.49212,-5.49212 5.4921207,5.4921217 0 0 1 5.49212,-5.49212 5.4921207,5.4921217 0 0 1 5.49212,5.49212 z"
         id="path6556" />
      <path
         inkscape:connector-curvature="0"
         style="fill:none;fill-opacity:1;stroke:#008000;stroke-width:0.70866144;stroke-linejoin:miter;stroke-miterlimit:4;stroke-dasharray:none;stroke-dashoffset:0;stroke-opacity:1"
         d="m 802.7362,538.58264 a 5.4921207,5.4921217 0 0 1 -5.49212,5.49212 5.4921207,5.4921217 0 0 1 -5.49212,-5.49212 5.4921207,5.4921217 0 0 1 5.49212,-5.49212 5.4921207,5.4921217 0 0 1 5.49212,5.49212 z"
         id="path6558" />
    </g>
    <g
       transform="translate(-642.93311,253.33632)"
       id="g6596">
      <path
         id="path6598"
         d="m 661.00396,538.58264 a 5.4921207,5.4921217 0 0 1 -5.49212,5.49212 5.4921207,5.4921217 0 0 1 -5.49212,-5.49212 5.4921207,5.4921217 0 0 1 5.49212,-5.49212 5.4921207,5.4921217 0 0 1 5.49212,5.49212 z"
         style="fill:none;fill-opacity:1;stroke:#008000;stroke-width:0.70866144;stroke-linejoin:miter;stroke-miterlimit:4;stroke-dasharray:none;stroke-dashoffset:0;stroke-opacity:1"
         inkscape:connector-curvature="0" />
      <path
         id="path6600"
         d="m 802.7362,538.58264 a 5.4921207,5.4921217 0 0 1 -5.49212,5.49212 5.4921207,5.4921217 0 0 1 -5.49212,-5.49212 5.4921207,5.4921217 0 0 1 5.49212,-5.49212 5.4921207,5.4921217 0 0 1 5.49212,5.49212 z"
         style="fill:none;fill-opacity:1;stroke:#008000;stroke-width:0.70866144;stroke-linejoin:miter;stroke-miterlimit:4;stroke-dasharray:none;stroke-dashoffset:0;stroke-opacity:1"
         inkscape:connector-curvature="0" />
    </g>
    <g
       id="g6612"
       transform="translate(-642.93311,147.03711)">
      <path
         inkscape:connector-curvature="0"
         style="fill:none;fill-opacity:1;stroke:#008000;stroke-width:0.70866144;stroke-linejoin:miter;stroke-miterlimit:4;stroke-dasharray:none;stroke-dashoffset:0;stroke-opacity:1"
         d="m 661.00396,538.58264 a 5.4921207,5.4921217 0 0 1 -5.49212,5.49212 5.4921207,5.4921217 0 0 1 -5.49212,-5.49212 5.4921207,5.4921217 0 0 1 5.49212,-5.49212 5.4921207,5.4921217 0 0 1 5.49212,5.49212 z"
         id="path6614" />
      <path
         inkscape:connector-curvature="0"
         style="fill:none;fill-opacity:1;stroke:#008000;stroke-width:0.70866144;stroke-linejoin:miter;stroke-miterlimit:4;stroke-dasharray:none;stroke-dashoffset:0;stroke-opacity:1"
         d="m 802.7362,538.58264 a 5.4921207,5.4921217 0 0 1 -5.49212,5.49212 5.4921207,5.4921217 0 0 1 -5.49212,-5.49212 5.4921207,5.4921217 0 0 1 5.49212,-5.49212 5.4921207,5.4921217 0 0 1 5.49212,5.49212 z"
         id="path6616" />
    </g>
    <g
       transform="translate(-642.93311,40.737902)"
       id="g6628">
      <path
         id="path6630"
         d="m 661.00396,538.58264 a 5.4921207,5.4921217 0 0 1 -5.49212,5.49212 5.4921207,5.4921217 0 0 1 -5.49212,-5.49212 5.4921207,5.4921217 0 0 1 5.49212,-5.49212 5.4921207,5.4921217 0 0 1 5.49212,5.49212 z"
         style="fill:none;fill-opacity:1;stroke:#008000;stroke-width:0.70866144;stroke-linejoin:miter;stroke-miterlimit:4;stroke-dasharray:none;stroke-dashoffset:0;stroke-opacity:1"
         inkscape:connector-curvature="0" />
      <path
         id="path6632"
         d="m 802.7362,538.58264 a 5.4921207,5.4921217 0 0 1 -5.49212,5.49212 5.4921207,5.4921217 0 0 1 -5.49212,-5.49212 5.4921207,5.4921217 0 0 1 5.49212,-5.49212 5.4921207,5.4921217 0 0 1 5.49212,5.49212 z"
         style="fill:none;fill-opacity:1;stroke:#008000;stroke-width:0.70866144;stroke-linejoin:miter;stroke-miterlimit:4;stroke-dasharray:none;stroke-dashoffset:0;stroke-opacity:1"
         inkscape:connector-curvature="0" />
    </g>
    <g
       id="g6644"
       transform="translate(-465.76777,465.93527)">
      <path
         inkscape:connector-curvature="0"
         style="fill:none;fill-opacity:1;stroke:#008000;stroke-width:0.70866144;stroke-linejoin:miter;stroke-miterlimit:4;stroke-dasharray:none;stroke-dashoffset:0;stroke-opacity:1"
         d="m 661.00396,538.58264 a 5.4921207,5.4921217 0 0 1 -5.49212,5.49212 5.4921207,5.4921217 0 0 1 -5.49212,-5.49212 5.4921207,5.4921217 0 0 1 5.49212,-5.49212 5.4921207,5.4921217 0 0 1 5.49212,5.49212 z"
         id="path6646" />
      <path
         inkscape:connector-curvature="0"
         style="fill:none;fill-opacity:1;stroke:#008000;stroke-width:0.70866144;stroke-linejoin:miter;stroke-miterlimit:4;stroke-dasharray:none;stroke-dashoffset:0;stroke-opacity:1"
         d="m 802.7362,538.58264 a 5.4921207,5.4921217 0 0 1 -5.49212,5.49212 5.4921207,5.4921217 0 0 1 -5.49212,-5.49212 5.4921207,5.4921217 0 0 1 5.49212,-5.49212 5.4921207,5.4921217 0 0 1 5.49212,5.49212 z"
         id="path6648" />
    </g>
    <path
       style="fill:none;fill-opacity:1;stroke:#006600;stroke-width:0.70866144;stroke-linejoin:miter;stroke-miterlimit:4;stroke-dasharray:none;stroke-dashoffset:0;stroke-opacity:1"
       d="m 299.96975,887.67239 a 40.748029,40.748028 0 0 1 -28.81321,49.90594 40.748029,40.748028 0 0 1 -49.90594,-28.8132 40.748029,40.748028 0 0 1 28.8132,-49.90603 40.748029,40.748028 0 0 1 49.90595,28.81329 z"
       id="path6658"
       inkscape:connector-curvature="0" />
    <g
       transform="translate(-465.76777,359.63606)"
       id="g6660">
      <path
         id="path6662"
         d="m 661.00396,538.58264 a 5.4921207,5.4921217 0 0 1 -5.49212,5.49212 5.4921207,5.4921217 0 0 1 -5.49212,-5.49212 5.4921207,5.4921217 0 0 1 5.49212,-5.49212 5.4921207,5.4921217 0 0 1 5.49212,5.49212 z"
         style="fill:none;fill-opacity:1;stroke:#008000;stroke-width:0.70866144;stroke-linejoin:miter;stroke-miterlimit:4;stroke-dasharray:none;stroke-dashoffset:0;stroke-opacity:1"
         inkscape:connector-curvature="0" />
      <path
         id="path6664"
         d="m 802.7362,538.58264 a 5.4921207,5.4921217 0 0 1 -5.49212,5.49212 5.4921207,5.4921217 0 0 1 -5.49212,-5.49212 5.4921207,5.4921217 0 0 1 5.49212,-5.49212 5.4921207,5.4921217 0 0 1 5.49212,5.49212 z"
         style="fill:none;fill-opacity:1;stroke:#008000;stroke-width:0.70866144;stroke-linejoin:miter;stroke-miterlimit:4;stroke-dasharray:none;stroke-dashoffset:0;stroke-opacity:1"
         inkscape:connector-curvature="0" />
    </g>
    <path
       inkscape:connector-curvature="0"
       id="path6674"
       d="m 299.96975,781.37318 a 40.748029,40.748028 0 0 1 -28.81321,49.90594 40.748029,40.748028 0 0 1 -49.90594,-28.8132 40.748029,40.748028 0 0 1 28.8132,-49.90603 40.748029,40.748028 0 0 1 49.90595,28.81329 z"
       style="fill:none;fill-opacity:1;stroke:#006600;stroke-width:0.70866144;stroke-linejoin:miter;stroke-miterlimit:4;stroke-dasharray:none;stroke-dashoffset:0;stroke-opacity:1" />
    <g
       id="g6676"
       transform="translate(-465.76777,253.33685)">
      <path
         inkscape:connector-curvature="0"
         style="fill:none;fill-opacity:1;stroke:#008000;stroke-width:0.70866144;stroke-linejoin:miter;stroke-miterlimit:4;stroke-dasharray:none;stroke-dashoffset:0;stroke-opacity:1"
         d="m 661.00396,538.58264 a 5.4921207,5.4921217 0 0 1 -5.49212,5.49212 5.4921207,5.4921217 0 0 1 -5.49212,-5.49212 5.4921207,5.4921217 0 0 1 5.49212,-5.49212 5.4921207,5.4921217 0 0 1 5.49212,5.49212 z"
         id="path6678" />
      <path
         inkscape:connector-curvature="0"
         style="fill:none;fill-opacity:1;stroke:#008000;stroke-width:0.70866144;stroke-linejoin:miter;stroke-miterlimit:4;stroke-dasharray:none;stroke-dashoffset:0;stroke-opacity:1"
         d="m 802.7362,538.58264 a 5.4921207,5.4921217 0 0 1 -5.49212,5.49212 5.4921207,5.4921217 0 0 1 -5.49212,-5.49212 5.4921207,5.4921217 0 0 1 5.49212,-5.49212 5.4921207,5.4921217 0 0 1 5.49212,5.49212 z"
         id="path6680" />
    </g>
    <path
       style="fill:none;fill-opacity:1;stroke:#006600;stroke-width:0.70866144;stroke-linejoin:miter;stroke-miterlimit:4;stroke-dasharray:none;stroke-dashoffset:0;stroke-opacity:1"
       d="m 299.96975,675.07397 a 40.748029,40.748028 0 0 1 -28.81321,49.90594 40.748029,40.748028 0 0 1 -49.90594,-28.8132 40.748029,40.748028 0 0 1 28.8132,-49.90603 40.748029,40.748028 0 0 1 49.90595,28.81329 z"
       id="path6690"
       inkscape:connector-curvature="0" />
    <g
       transform="translate(-465.76777,147.03764)"
       id="g6692">
      <path
         id="path6694"
         d="m 661.00396,538.58264 a 5.4921207,5.4921217 0 0 1 -5.49212,5.49212 5.4921207,5.4921217 0 0 1 -5.49212,-5.49212 5.4921207,5.4921217 0 0 1 5.49212,-5.49212 5.4921207,5.4921217 0 0 1 5.49212,5.49212 z"
         style="fill:none;fill-opacity:1;stroke:#008000;stroke-width:0.70866144;stroke-linejoin:miter;stroke-miterlimit:4;stroke-dasharray:none;stroke-dashoffset:0;stroke-opacity:1"
         inkscape:connector-curvature="0" />
      <path
         id="path6696"
         d="m 802.7362,538.58264 a 5.4921207,5.4921217 0 0 1 -5.49212,5.49212 5.4921207,5.4921217 0 0 1 -5.49212,-5.49212 5.4921207,5.4921217 0 0 1 5.49212,-5.49212 5.4921207,5.4921217 0 0 1 5.49212,5.49212 z"
         style="fill:none;fill-opacity:1;stroke:#008000;stroke-width:0.70866144;stroke-linejoin:miter;stroke-miterlimit:4;stroke-dasharray:none;stroke-dashoffset:0;stroke-opacity:1"
         inkscape:connector-curvature="0" />
    </g>
    <path
       inkscape:connector-curvature="0"
       id="path6706"
       d="m 299.96975,568.77475 a 40.748029,40.748028 0 0 1 -28.81321,49.90594 40.748029,40.748028 0 0 1 -49.90594,-28.8132 40.748029,40.748028 0 0 1 28.8132,-49.90603 40.748029,40.748028 0 0 1 49.90595,28.81329 z"
       style="fill:none;fill-opacity:1;stroke:#006600;stroke-width:0.70866144;stroke-linejoin:miter;stroke-miterlimit:4;stroke-dasharray:none;stroke-dashoffset:0;stroke-opacity:1" />
    <g
       id="g6708"
       transform="translate(-465.76777,40.738431)">
      <path
         inkscape:connector-curvature="0"
         style="fill:none;fill-opacity:1;stroke:#008000;stroke-width:0.70866144;stroke-linejoin:miter;stroke-miterlimit:4;stroke-dasharray:none;stroke-dashoffset:0;stroke-opacity:1"
         d="m 661.00396,538.58264 a 5.4921207,5.4921217 0 0 1 -5.49212,5.49212 5.4921207,5.4921217 0 0 1 -5.49212,-5.49212 5.4921207,5.4921217 0 0 1 5.49212,-5.49212 5.4921207,5.4921217 0 0 1 5.49212,5.49212 z"
         id="path6710" />
      <path
         inkscape:connector-curvature="0"
         style="fill:none;fill-opacity:1;stroke:#008000;stroke-width:0.70866144;stroke-linejoin:miter;stroke-miterlimit:4;stroke-dasharray:none;stroke-dashoffset:0;stroke-opacity:1"
         d="m 802.7362,538.58264 a 5.4921207,5.4921217 0 0 1 -5.49212,5.49212 5.4921207,5.4921217 0 0 1 -5.49212,-5.49212 5.4921207,5.4921217 0 0 1 5.49212,-5.49212 5.4921207,5.4921217 0 0 1 5.49212,5.49212 z"
         id="path6712" />
    </g>
    <rect
       style="display:inline;fill:none;fill-opacity:1;stroke:#008000;stroke-width:0.70899999;stroke-linejoin:miter;stroke-miterlimit:4;stroke-dasharray:none;stroke-dashoffset:0;stroke-opacity:1"
       id="rect4140"
       width="58.464565"
       height="30.118111"
       x="54.212524"
       y="883.15906"
       rx="1.55022e-14"
       ry="1.55022e-14" />
    <rect
       ry="1.55022e-14"
       rx="1.55022e-14"
       y="776.85986"
       x="54.212524"
       height="30.118111"
       width="58.464565"
       id="rect6602"
       style="display:inline;fill:none;fill-opacity:1;stroke:#008000;stroke-width:0.70899999;stroke-linejoin:miter;stroke-miterlimit:4;stroke-dasharray:none;stroke-dashoffset:0;stroke-opacity:1" />
    <rect
       style="display:inline;fill:none;fill-opacity:1;stroke:#008000;stroke-width:0.70899999;stroke-linejoin:miter;stroke-miterlimit:4;stroke-dasharray:none;stroke-dashoffset:0;stroke-opacity:1"
       id="rect6618"
       width="58.464565"
       height="30.118111"
       x="54.212524"
       y="670.56067"
       rx="1.55022e-14"
       ry="1.55022e-14" />
    <rect
       ry="1.55022e-14"
       rx="1.55022e-14"
       y="564.26147"
       x="54.212524"
       height="30.118111"
       width="58.464565"
       id="rect6634"
       style="display:inline;fill:none;fill-opacity:1;stroke:#008000;stroke-width:0.70899999;stroke-linejoin:miter;stroke-miterlimit:4;stroke-dasharray:none;stroke-dashoffset:0;stroke-opacity:1" />
    <path
       style="display:inline;fill:none;fill-opacity:1;stroke:#008000;stroke-width:0.70899999;stroke-linejoin:miter;stroke-miterlimit:4;stroke-dasharray:none;stroke-dashoffset:0;stroke-opacity:1"
       d="m 231.3779,989.45898 0,30.11722 58.46484,0 0,-30.11722 -6.20117,0 0,1.0625 -46.0625,0 0,-1.0625 -6.20117,0 z"
       id="rect6650"
       inkscape:connector-curvature="0" />
  </g>
  <g
     inkscape:groupmode="layer"
     id="layer2"
     inkscape:label="Etch"
     style="display:inline">
    <g
       style="display:inline;stroke:#ff6600"
       inkscape:label="Hershey Text"
       transform="matrix(0.5,0,0,0.5,3.9440898,933.89939)"
       id="g7407">
      <path
         inkscape:connector-curvature="0"
         d="m -4,-8 2,-1 3,-3 0,21"
         style="fill:none;stroke:#ff6600"
         transform="translate(10,0)"
         id="path7409" />
    </g>
    <g
       style="display:inline;stroke:#ff6600"
       id="g7565"
       transform="matrix(0.5,0,0,0.5,5.5866098,828.17716)"
       inkscape:label="Hershey Text">
      <path
         inkscape:connector-curvature="0"
         id="path7567"
         transform="translate(10,0)"
         style="fill:none;stroke:#ff6600"
         d="m -6,-7 0,-1 1,-2 1,-1 2,-1 4,0 2,1 1,1 1,2 0,2 L 5,-4 3,-1 -7,9 7,9" />
    </g>
    <g
       style="display:inline;stroke:#ff6600"
       inkscape:label="Hershey Text"
       transform="matrix(0.5,0,0,0.5,5.3799098,721.74803)"
       id="g7727">
      <path
         inkscape:connector-curvature="0"
         d="m -5,-12 11,0 -6,8 3,0 2,1 1,1 L 7,1 7,3 6,6 4,8 1,9 -2,9 -5,8 -6,7 -7,5"
         style="fill:none;stroke:#ff6600"
         transform="translate(10,0)"
         id="path7729" />
    </g>
    <g
       style="display:inline;stroke:#ff6600"
       id="g7893"
       transform="matrix(0.5,0,0,0.5,5.3799098,615.53543)"
       inkscape:label="Hershey Text">
      <path
         inkscape:connector-curvature="0"
         id="path7895"
         transform="translate(10,0)"
         style="fill:none;stroke:#ff6600"
         d="M 3,-12 -7,2 8,2 M 3,-12 3,9" />
    </g>
    <g
       style="display:inline;stroke:#ff6600"
       inkscape:label="Hershey Text"
       transform="matrix(0.5,0,0,0.5,182.71388,1041.1573)"
       id="g8063">
      <path
         inkscape:connector-curvature="0"
         d="m 5,-12 -10,0 -1,9 1,-1 3,-1 3,0 3,1 2,2 L 7,1 7,3 6,6 4,8 1,9 -2,9 -5,8 -6,7 -7,5"
         style="fill:none;stroke:#ff6600"
         transform="translate(10,0)"
         id="path8065" />
    </g>
    <g
       style="display:inline;stroke:#ff6600"
       id="g8237"
       transform="matrix(0.5,0,0,0.5,182.79527,934.47638)"
       inkscape:label="Hershey Text">
      <path
         inkscape:connector-curvature="0"
         id="path8239"
         transform="translate(10,0)"
         style="fill:none;stroke:#ff6600"
         d="m 6,-9 -1,-2 -3,-1 -2,0 -3,1 -2,3 -1,5 0,5 1,4 2,2 L 0,9 1,9 4,8 6,6 7,3 7,2 6,-1 4,-3 1,-4 l -1,0 -3,1 -2,2 -1,3" />
    </g>
    <g
       style="display:inline;stroke:#ff6600"
       inkscape:label="Hershey Text"
       transform="matrix(0.5,0,0,0.5,182.75197,828.04724)"
       id="g8415">
      <path
         inkscape:connector-curvature="0"
         d="M 7,-12 -3,9 m -4,-21 14,0"
         style="fill:none;stroke:#ff6600"
         transform="translate(10,0)"
         id="path8417" />
    </g>
    <g
       style="display:inline;stroke:#ff6600"
       id="g8597"
       transform="matrix(0.5,0,0,0.5,182.79527,721.87795)"
       inkscape:label="Hershey Text">
      <path
         inkscape:connector-curvature="0"
         id="path8599"
         transform="translate(10,0)"
         style="fill:none;stroke:#ff6600"
         d="m -2,-12 -3,1 -1,2 0,2 1,2 2,1 4,1 3,1 L 6,0 7,2 7,5 6,7 5,8 2,9 -2,9 -5,8 -6,7 -7,5 l 0,-3 1,-2 2,-2 3,-1 4,-1 2,-1 1,-2 0,-2 -1,-2 -3,-1 -4,0" />
    </g>
    <g
       style="display:inline;stroke:#ff6600"
       inkscape:label="Hershey Text"
       transform="matrix(0.5,0,0,0.5,182.79527,615.57874)"
       id="g8783">
      <path
         inkscape:connector-curvature="0"
         d="M 6,-5 5,-2 3,0 0,1 -1,1 -4,0 l -2,-2 -1,-3 0,-1 1,-3 2,-2 3,-1 1,0 3,1 2,2 1,4 L 6,0 5,5 3,8 0,9 -2,9 -5,8 -6,6"
         style="fill:none;stroke:#ff6600"
         transform="translate(10,0)"
         id="path8785" />
    </g>
    <g
       style="display:inline;fill:none;stroke:#ff6600"
       id="g8973"
       transform="matrix(0.5,0,0,0.5,5.9045998,1040.988)"
       inkscape:label="Hershey Text">
      <path
         id="path8975"
         transform="translate(10,0)"
         style="fill:none;stroke:#ff6600"
         d="m -1,-12 -3,1 -2,3 -1,5 0,3 1,5 2,3 3,1 2,0 3,-1 2,-3 1,-5 0,-3 -1,-5 -2,-3 -3,-1 -2,0"
         inkscape:connector-curvature="0" />
    </g>
  </g>
</svg>
