<?xml version="1.0" encoding="UTF-8" standalone="no"?>
<!-- Created with Inkscape (http://www.inkscape.org/) -->

<svg
   xmlns:dc="http://purl.org/dc/elements/1.1/"
   xmlns:cc="http://creativecommons.org/ns#"
   xmlns:rdf="http://www.w3.org/1999/02/22-rdf-syntax-ns#"
   xmlns:svg="http://www.w3.org/2000/svg"
   xmlns="http://www.w3.org/2000/svg"
   xmlns:sodipodi="http://sodipodi.sourceforge.net/DTD/sodipodi-0.dtd"
   xmlns:inkscape="http://www.inkscape.org/namespaces/inkscape"
   width="410mm"
   height="290mm"
   viewBox="0 0 1452.7559 1027.559"
   id="svg2"
   version="1.1"
   inkscape:version="0.91 r13725"
   sodipodi:docname="top_plate.svg">
  <defs
     id="defs4" />
  <sodipodi:namedview
     id="base"
     pagecolor="#ffffff"
     bordercolor="#666666"
     borderopacity="1.0"
     inkscape:pageopacity="0.0"
     inkscape:pageshadow="2"
     inkscape:zoom="1.0987203"
     inkscape:cx="657.3366"
     inkscape:cy="513.77953"
     inkscape:document-units="mm"
     inkscape:current-layer="layer1"
     showgrid="true"
     inkscape:window-width="2560"
     inkscape:window-height="1315"
     inkscape:window-x="0"
     inkscape:window-y="1"
     inkscape:window-maximized="1"
     inkscape:object-paths="true"
     inkscape:snap-intersection-paths="true"
     inkscape:object-nodes="true"
     inkscape:snap-grids="true"
     inkscape:snap-bbox="true">
    <inkscape:grid
       type="xygrid"
       id="grid4136"
       units="mm"
       spacingx="3.5433072"
       spacingy="3.5433071"
       dotted="true" />
  </sodipodi:namedview>
  <metadata
     id="metadata7">
    <rdf:RDF>
      <cc:Work
         rdf:about="">
        <dc:format>image/svg+xml</dc:format>
        <dc:type
           rdf:resource="http://purl.org/dc/dcmitype/StillImage" />
        <dc:title />
      </cc:Work>
    </rdf:RDF>
  </metadata>
  <g
     inkscape:groupmode="layer"
     id="layer4"
     inkscape:label="Frame"
     sodipodi:insensitive="true">
    <path
       sodipodi:type="star"
       style="fill:none;fill-opacity:1;stroke:#990000;stroke-width:0.849742;stroke-linejoin:miter;stroke-miterlimit:4;stroke-dasharray:none;stroke-dashoffset:0;stroke-opacity:1"
       id="path4780"
       sodipodi:sides="6"
       sodipodi:cx="0"
       sodipodi:cy="219.68501"
       sodipodi:r1="425.19687"
       sodipodi:r2="425.19687"
       sodipodi:arg1="1.5707963"
       sodipodi:arg2="2.0943951"
       inkscape:flatsided="false"
       inkscape:rounded="0"
       inkscape:randomized="0"
       d="M 1.1393106e-5,644.88188 -212.59843,587.9163 -368.23128,432.28346 -425.19687,219.68501 -368.2313,7.0865882 -212.59844,-148.54628 -1.1393106e-5,-205.51186 212.59843,-148.54628 368.23128,7.0865685 425.19687,219.68501 368.2313,432.28344 212.59844,587.9163 Z"
       transform="matrix(1.2083333,0.32377193,-0.32377193,1.2083333,797.50579,248.32675)" />
  </g>
  <g
     inkscape:label="Cut"
     inkscape:groupmode="layer"
     id="layer1"
     transform="translate(0,-24.803154)">
    <text
       xml:space="preserve"
       style="font-style:normal;font-variant:normal;font-weight:500;font-stretch:normal;font-size:24px;line-height:125%;font-family:Futura;-inkscape-font-specification:'Futura Medium';text-align:center;letter-spacing:0px;word-spacing:0px;text-anchor:middle;fill:#000000;fill-opacity:1;stroke:none;stroke-width:1px;stroke-linecap:butt;stroke-linejoin:miter;stroke-opacity:1"
       x="425.19684"
       y="627.16528"
       id="text7129"
       sodipodi:linespacing="125%"><tspan
         sodipodi:role="line"
         id="tspan7131"
         x="425.19684"
         y="627.16528" /></text>
    <g
       id="g6039"
       transform="matrix(0.96592583,-0.25881905,0.25881905,0.96592583,-114.64471,206.35221)">
      <g
         id="g6005">
        <path
           style="fill:none;fill-opacity:1;stroke:#006600;stroke-width:1.0629921;stroke-linejoin:miter;stroke-miterlimit:4;stroke-dasharray:none;stroke-dashoffset:0;stroke-opacity:1"
           d="m 602.8943,308.43809 a 9.3903245,9.3903245 0 0 1 -9.39033,9.39032 9.3903245,9.3903245 0 0 1 -9.39032,-9.39032 9.3903245,9.3903245 0 0 1 9.39032,-9.39033 9.3903245,9.3903245 0 0 1 9.39033,9.39033 z"
           id="path5907"
           inkscape:connector-curvature="0" />
        <path
           style="fill:none;fill-opacity:1;stroke:#006600;stroke-width:1.0629921;stroke-linejoin:miter;stroke-miterlimit:4;stroke-dasharray:none;stroke-dashoffset:0;stroke-opacity:1"
           d="m 868.64231,768.72716 a 9.3903245,9.3903245 0 0 1 -9.39033,9.39032 9.3903245,9.3903245 0 0 1 -9.39032,-9.39032 9.3903245,9.3903245 0 0 1 9.39032,-9.39033 9.3903245,9.3903245 0 0 1 9.39033,9.39033 z"
           id="path5969"
           inkscape:connector-curvature="0" />
      </g>
      <g
         transform="matrix(0.8660254,0.5,-0.5,0.8660254,366.60751,-291.0326)"
         id="g6009">
        <path
           inkscape:connector-curvature="0"
           id="path6011"
           d="m 602.8943,308.43809 a 9.3903245,9.3903245 0 0 1 -9.39033,9.39032 9.3903245,9.3903245 0 0 1 -9.39032,-9.39032 9.3903245,9.3903245 0 0 1 9.39032,-9.39033 9.3903245,9.3903245 0 0 1 9.39033,9.39033 z"
           style="fill:none;fill-opacity:1;stroke:#006600;stroke-width:1.0629921;stroke-linejoin:miter;stroke-miterlimit:4;stroke-dasharray:none;stroke-dashoffset:0;stroke-opacity:1" />
        <path
           inkscape:connector-curvature="0"
           id="path6013"
           d="m 868.64231,768.72716 a 9.3903245,9.3903245 0 0 1 -9.39033,9.39032 9.3903245,9.3903245 0 0 1 -9.39032,-9.39032 9.3903245,9.3903245 0 0 1 9.39032,-9.39033 9.3903245,9.3903245 0 0 1 9.39033,9.39033 z"
           style="fill:none;fill-opacity:1;stroke:#006600;stroke-width:1.0629921;stroke-linejoin:miter;stroke-miterlimit:4;stroke-dasharray:none;stroke-dashoffset:0;stroke-opacity:1" />
      </g>
      <g
         id="g6015"
         transform="matrix(0.5,0.8660254,-0.8660254,0.5,829.61522,-359.77047)">
        <path
           style="fill:none;fill-opacity:1;stroke:#006600;stroke-width:1.0629921;stroke-linejoin:miter;stroke-miterlimit:4;stroke-dasharray:none;stroke-dashoffset:0;stroke-opacity:1"
           d="m 602.8943,308.43809 a 9.3903245,9.3903245 0 0 1 -9.39033,9.39032 9.3903245,9.3903245 0 0 1 -9.39032,-9.39032 9.3903245,9.3903245 0 0 1 9.39032,-9.39033 9.3903245,9.3903245 0 0 1 9.39033,9.39033 z"
           id="path6017"
           inkscape:connector-curvature="0" />
        <path
           style="fill:none;fill-opacity:1;stroke:#006600;stroke-width:1.0629921;stroke-linejoin:miter;stroke-miterlimit:4;stroke-dasharray:none;stroke-dashoffset:0;stroke-opacity:1"
           d="m 868.64231,768.72716 a 9.3903245,9.3903245 0 0 1 -9.39033,9.39032 9.3903245,9.3903245 0 0 1 -9.39032,-9.39032 9.3903245,9.3903245 0 0 1 9.39032,-9.39033 9.3903245,9.3903245 0 0 1 9.39033,9.39033 z"
           id="path6019"
           inkscape:connector-curvature="0" />
      </g>
      <g
         transform="matrix(0,1,-1,0,1264.9606,-187.79536)"
         id="g6021">
        <path
           inkscape:connector-curvature="0"
           id="path6023"
           d="m 602.8943,308.43809 a 9.3903245,9.3903245 0 0 1 -9.39033,9.39032 9.3903245,9.3903245 0 0 1 -9.39032,-9.39032 9.3903245,9.3903245 0 0 1 9.39032,-9.39033 9.3903245,9.3903245 0 0 1 9.39033,9.39033 z"
           style="fill:none;fill-opacity:1;stroke:#006600;stroke-width:1.0629921;stroke-linejoin:miter;stroke-miterlimit:4;stroke-dasharray:none;stroke-dashoffset:0;stroke-opacity:1" />
        <path
           inkscape:connector-curvature="0"
           id="path6025"
           d="m 868.64231,768.72716 a 9.3903245,9.3903245 0 0 1 -9.39033,9.39032 9.3903245,9.3903245 0 0 1 -9.39032,-9.39032 9.3903245,9.3903245 0 0 1 9.39032,-9.39033 9.3903245,9.3903245 0 0 1 9.39033,9.39033 z"
           style="fill:none;fill-opacity:1;stroke:#006600;stroke-width:1.0629921;stroke-linejoin:miter;stroke-miterlimit:4;stroke-dasharray:none;stroke-dashoffset:0;stroke-opacity:1" />
      </g>
      <g
         id="g6027"
         transform="matrix(-0.5,0.8660254,-0.8660254,-0.5,1555.9932,178.81215)">
        <path
           style="fill:none;fill-opacity:1;stroke:#006600;stroke-width:1.0629921;stroke-linejoin:miter;stroke-miterlimit:4;stroke-dasharray:none;stroke-dashoffset:0;stroke-opacity:1"
           d="m 602.8943,308.43809 a 9.3903245,9.3903245 0 0 1 -9.39033,9.39032 9.3903245,9.3903245 0 0 1 -9.39032,-9.39032 9.3903245,9.3903245 0 0 1 9.39032,-9.39033 9.3903245,9.3903245 0 0 1 9.39033,9.39033 z"
           id="path6029"
           inkscape:connector-curvature="0" />
        <path
           style="fill:none;fill-opacity:1;stroke:#006600;stroke-width:1.0629921;stroke-linejoin:miter;stroke-miterlimit:4;stroke-dasharray:none;stroke-dashoffset:0;stroke-opacity:1"
           d="m 868.64231,768.72716 a 9.3903245,9.3903245 0 0 1 -9.39033,9.39032 9.3903245,9.3903245 0 0 1 -9.39032,-9.39032 9.3903245,9.3903245 0 0 1 9.39032,-9.39033 9.3903245,9.3903245 0 0 1 9.39033,9.39033 z"
           id="path6031"
           inkscape:connector-curvature="0" />
      </g>
      <g
         transform="matrix(-0.8660254,0.5,-0.5,-0.8660254,1624.7311,641.81986)"
         id="g6033">
        <path
           inkscape:connector-curvature="0"
           id="path6035"
           d="m 602.8943,308.43809 a 9.3903245,9.3903245 0 0 1 -9.39033,9.39032 9.3903245,9.3903245 0 0 1 -9.39032,-9.39032 9.3903245,9.3903245 0 0 1 9.39032,-9.39033 9.3903245,9.3903245 0 0 1 9.39033,9.39033 z"
           style="fill:none;fill-opacity:1;stroke:#006600;stroke-width:1.0629921;stroke-linejoin:miter;stroke-miterlimit:4;stroke-dasharray:none;stroke-dashoffset:0;stroke-opacity:1" />
        <path
           inkscape:connector-curvature="0"
           id="path6037"
           d="m 868.64231,768.72716 a 9.3903245,9.3903245 0 0 1 -9.39033,9.39032 9.3903245,9.3903245 0 0 1 -9.39032,-9.39032 9.3903245,9.3903245 0 0 1 9.39032,-9.39033 9.3903245,9.3903245 0 0 1 9.39033,9.39033 z"
           style="fill:none;fill-opacity:1;stroke:#006600;stroke-width:1.0629921;stroke-linejoin:miter;stroke-miterlimit:4;stroke-dasharray:none;stroke-dashoffset:0;stroke-opacity:1" />
      </g>
    </g>
    <g
       id="g6069"
       transform="matrix(0.96592583,0.25881905,-0.25881905,0.96592583,164.14616,-169.64869)">
      <path
         inkscape:connector-curvature="0"
         id="path5061"
         d="m 726.37796,857.4319 c -23.48236,6e-5 -42.51873,14.27691 -42.51953,31.88867 l 0,16.57618 c -10.22725,6.56758 -15.93077,15.25329 -15.94531,24.28515 0.0145,9.03185 5.71806,17.71931 15.94531,24.28711 l 0,5.94336 0,10.63281 0,17.75196 a 46.062996,46.062996 0 0 0 -3.54297,17.67966 46.062996,46.062996 0 0 0 46.0625,46.0625 46.062996,46.062996 0 0 0 46.06445,-46.0625 46.062996,46.062996 0 0 0 -3.54296,-17.61326 l 0,-28.45117 -0.002,0 0,-5.97461 c 10.21505,-6.5599 15.91762,-15.2349 15.94532,-24.25586 -0.0277,-9.02097 -5.73027,-17.69399 -15.94532,-24.25391 l 0,-16.60742 c -7.9e-4,-17.61176 -19.03718,-31.88861 -42.51953,-31.88867 z"
         style="fill:none;fill-opacity:1;stroke:#006600;stroke-width:0.70866144;stroke-linejoin:miter;stroke-miterlimit:4;stroke-dasharray:none;stroke-dashoffset:0;stroke-opacity:1" />
      <path
         style="fill:none;fill-opacity:1;stroke:#006600;stroke-width:0.70866144;stroke-linejoin:miter;stroke-miterlimit:4;stroke-dasharray:none;stroke-dashoffset:0;stroke-opacity:1"
         d="m 726.37796,219.73332 c -23.48236,-1e-4 -42.51873,-14.2769 -42.51953,-31.8887 l 0,-16.5761 c -10.22725,-6.56763 -15.93077,-15.25334 -15.94531,-24.2852 0.0145,-9.03185 5.71806,-17.71931 15.94531,-24.28711 l 0,-5.94336 0,-10.63281 0,-17.751964 a 46.062996,46.062996 0 0 1 -3.54297,-17.67966 46.062996,46.062996 0 0 1 46.0625,-46.0625 46.062996,46.062996 0 0 1 46.06445,46.0625 46.062996,46.062996 0 0 1 -3.54296,17.61326 l 0,28.451174 -0.002,0 0,5.97461 c 10.21505,6.5599 15.91762,15.2349 15.94532,24.25586 -0.0277,9.02097 -5.73027,17.69399 -15.94532,24.2539 l 0,16.6074 c -7.9e-4,17.6118 -19.03718,31.8886 -42.51953,31.8887 z"
         id="path6061"
         inkscape:connector-curvature="0" />
    </g>
    <g
       transform="matrix(0.70710678,0.70710679,-0.70710679,0.70710678,593.58684,-355.88002)"
       id="g6073">
      <path
         style="fill:none;fill-opacity:1;stroke:#006600;stroke-width:0.70866144;stroke-linejoin:miter;stroke-miterlimit:4;stroke-dasharray:none;stroke-dashoffset:0;stroke-opacity:1"
         d="m 726.37796,857.4319 c -23.48236,6e-5 -42.51873,14.27691 -42.51953,31.88867 l 0,16.57618 c -10.22725,6.56758 -15.93077,15.25329 -15.94531,24.28515 0.0145,9.03185 5.71806,17.71931 15.94531,24.28711 l 0,5.94336 0,10.63281 0,17.75196 a 46.062996,46.062996 0 0 0 -3.54297,17.67966 46.062996,46.062996 0 0 0 46.0625,46.0625 46.062996,46.062996 0 0 0 46.06445,-46.0625 46.062996,46.062996 0 0 0 -3.54296,-17.61326 l 0,-28.45117 -0.002,0 0,-5.97461 c 10.21505,-6.5599 15.91762,-15.2349 15.94532,-24.25586 -0.0277,-9.02097 -5.73027,-17.69399 -15.94532,-24.25391 l 0,-16.60742 c -7.9e-4,-17.61176 -19.03718,-31.88861 -42.51953,-31.88867 z"
         id="path6075"
         inkscape:connector-curvature="0" />
      <path
         inkscape:connector-curvature="0"
         id="path6077"
         d="m 726.37796,219.73332 c -23.48236,-1e-4 -42.51873,-14.2769 -42.51953,-31.8887 l 0,-16.5761 c -10.22725,-6.56763 -15.93077,-15.25334 -15.94531,-24.2852 0.0145,-9.03185 5.71806,-17.71931 15.94531,-24.28711 l 0,-5.94336 0,-10.63281 0,-17.751964 a 46.062996,46.062996 0 0 1 -3.54297,-17.67966 46.062996,46.062996 0 0 1 46.0625,-46.0625 46.062996,46.062996 0 0 1 46.06445,46.0625 46.062996,46.062996 0 0 1 -3.54296,17.61326 l 0,28.451174 -0.002,0 0,5.97461 c 10.21505,6.5599 15.91762,15.2349 15.94532,24.25586 -0.0277,9.02097 -5.73027,17.69399 -15.94532,24.2539 l 0,16.6074 c -7.9e-4,17.6118 -19.03718,31.8886 -42.51953,31.8887 z"
         style="fill:none;fill-opacity:1;stroke:#006600;stroke-width:0.70866144;stroke-linejoin:miter;stroke-miterlimit:4;stroke-dasharray:none;stroke-dashoffset:0;stroke-opacity:1" />
    </g>
    <g
       id="g6079"
       transform="matrix(0.25881904,0.96592583,-0.96592583,0.25881904,1058.609,-302.44074)">
      <path
         inkscape:connector-curvature="0"
         id="path6081"
         d="m 726.37796,857.4319 c -23.48236,6e-5 -42.51873,14.27691 -42.51953,31.88867 l 0,16.57618 c -10.22725,6.56758 -15.93077,15.25329 -15.94531,24.28515 0.0145,9.03185 5.71806,17.71931 15.94531,24.28711 l 0,5.94336 0,10.63281 0,17.75196 a 46.062996,46.062996 0 0 0 -3.54297,17.67966 46.062996,46.062996 0 0 0 46.0625,46.0625 46.062996,46.062996 0 0 0 46.06445,-46.0625 46.062996,46.062996 0 0 0 -3.54296,-17.61326 l 0,-28.45117 -0.002,0 0,-5.97461 c 10.21505,-6.5599 15.91762,-15.2349 15.94532,-24.25586 -0.0277,-9.02097 -5.73027,-17.69399 -15.94532,-24.25391 l 0,-16.60742 c -7.9e-4,-17.61176 -19.03718,-31.88861 -42.51953,-31.88867 z"
         style="fill:none;fill-opacity:1;stroke:#006600;stroke-width:0.70866144;stroke-linejoin:miter;stroke-miterlimit:4;stroke-dasharray:none;stroke-dashoffset:0;stroke-opacity:1" />
      <path
         style="fill:none;fill-opacity:1;stroke:#006600;stroke-width:0.70866144;stroke-linejoin:miter;stroke-miterlimit:4;stroke-dasharray:none;stroke-dashoffset:0;stroke-opacity:1"
         d="m 726.37796,219.73332 c -23.48236,-1e-4 -42.51873,-14.2769 -42.51953,-31.8887 l 0,-16.5761 c -10.22725,-6.56763 -15.93077,-15.25334 -15.94531,-24.2852 0.0145,-9.03185 5.71806,-17.71931 15.94531,-24.28711 l 0,-5.94336 0,-10.63281 0,-17.751964 a 46.062996,46.062996 0 0 1 -3.54297,-17.67966 46.062996,46.062996 0 0 1 46.0625,-46.0625 46.062996,46.062996 0 0 1 46.06445,46.0625 46.062996,46.062996 0 0 1 -3.54296,17.61326 l 0,28.451174 -0.002,0 0,5.97461 c 10.21505,6.5599 15.91762,15.2349 15.94532,24.25586 -0.0277,9.02097 -5.73027,17.69399 -15.94532,24.2539 l 0,16.6074 c -7.9e-4,17.6118 -19.03718,31.8886 -42.51953,31.8887 z"
         id="path6083"
         inkscape:connector-curvature="0" />
    </g>
    <g
       transform="matrix(-0.25881905,0.96592583,-0.96592583,-0.25881905,1434.6104,-23.649865)"
       id="g6085">
      <path
         style="fill:none;fill-opacity:1;stroke:#006600;stroke-width:0.70866144;stroke-linejoin:miter;stroke-miterlimit:4;stroke-dasharray:none;stroke-dashoffset:0;stroke-opacity:1"
         d="m 726.37796,857.4319 c -23.48236,6e-5 -42.51873,14.27691 -42.51953,31.88867 l 0,16.57618 c -10.22725,6.56758 -15.93077,15.25329 -15.94531,24.28515 0.0145,9.03185 5.71806,17.71931 15.94531,24.28711 l 0,5.94336 0,10.63281 0,17.75196 a 46.062996,46.062996 0 0 0 -3.54297,17.67966 46.062996,46.062996 0 0 0 46.0625,46.0625 46.062996,46.062996 0 0 0 46.06445,-46.0625 46.062996,46.062996 0 0 0 -3.54296,-17.61326 l 0,-28.45117 -0.002,0 0,-5.97461 c 10.21505,-6.5599 15.91762,-15.2349 15.94532,-24.25586 -0.0277,-9.02097 -5.73027,-17.69399 -15.94532,-24.25391 l 0,-16.60742 c -7.9e-4,-17.61176 -19.03718,-31.88861 -42.51953,-31.88867 z"
         id="path6087"
         inkscape:connector-curvature="0" />
      <path
         inkscape:connector-curvature="0"
         id="path6089"
         d="m 726.37796,219.73332 c -23.48236,-1e-4 -42.51873,-14.2769 -42.51953,-31.8887 l 0,-16.5761 c -10.22725,-6.56763 -15.93077,-15.25334 -15.94531,-24.2852 0.0145,-9.03185 5.71806,-17.71931 15.94531,-24.28711 l 0,-5.94336 0,-10.63281 0,-17.751964 a 46.062996,46.062996 0 0 1 -3.54297,-17.67966 46.062996,46.062996 0 0 1 46.0625,-46.0625 46.062996,46.062996 0 0 1 46.06445,46.0625 46.062996,46.062996 0 0 1 -3.54296,17.61326 l 0,28.451174 -0.002,0 0,5.97461 c 10.21505,6.5599 15.91762,15.2349 15.94532,24.25586 -0.0277,9.02097 -5.73027,17.69399 -15.94532,24.2539 l 0,16.6074 c -7.9e-4,17.6118 -19.03718,31.8886 -42.51953,31.8887 z"
         style="fill:none;fill-opacity:1;stroke:#006600;stroke-width:0.70866144;stroke-linejoin:miter;stroke-miterlimit:4;stroke-dasharray:none;stroke-dashoffset:0;stroke-opacity:1" />
    </g>
    <g
       id="g6091"
       transform="matrix(-0.70710679,0.70710678,-0.70710678,-0.70710679,1620.8417,405.79082)">
      <path
         inkscape:connector-curvature="0"
         id="path6093"
         d="m 726.37796,857.4319 c -23.48236,6e-5 -42.51873,14.27691 -42.51953,31.88867 l 0,16.57618 c -10.22725,6.56758 -15.93077,15.25329 -15.94531,24.28515 0.0145,9.03185 5.71806,17.71931 15.94531,24.28711 l 0,5.94336 0,10.63281 0,17.75196 a 46.062996,46.062996 0 0 0 -3.54297,17.67966 46.062996,46.062996 0 0 0 46.0625,46.0625 46.062996,46.062996 0 0 0 46.06445,-46.0625 46.062996,46.062996 0 0 0 -3.54296,-17.61326 l 0,-28.45117 -0.002,0 0,-5.97461 c 10.21505,-6.5599 15.91762,-15.2349 15.94532,-24.25586 -0.0277,-9.02097 -5.73027,-17.69399 -15.94532,-24.25391 l 0,-16.60742 c -7.9e-4,-17.61176 -19.03718,-31.88861 -42.51953,-31.88867 z"
         style="fill:none;fill-opacity:1;stroke:#006600;stroke-width:0.70866144;stroke-linejoin:miter;stroke-miterlimit:4;stroke-dasharray:none;stroke-dashoffset:0;stroke-opacity:1" />
      <path
         style="fill:none;fill-opacity:1;stroke:#006600;stroke-width:0.70866144;stroke-linejoin:miter;stroke-miterlimit:4;stroke-dasharray:none;stroke-dashoffset:0;stroke-opacity:1"
         d="m 726.37796,219.73332 c -23.48236,-1e-4 -42.51873,-14.2769 -42.51953,-31.8887 l 0,-16.5761 c -10.22725,-6.56763 -15.93077,-15.25334 -15.94531,-24.2852 0.0145,-9.03185 5.71806,-17.71931 15.94531,-24.28711 l 0,-5.94336 0,-10.63281 0,-17.751964 a 46.062996,46.062996 0 0 1 -3.54297,-17.67966 46.062996,46.062996 0 0 1 46.0625,-46.0625 46.062996,46.062996 0 0 1 46.06445,46.0625 46.062996,46.062996 0 0 1 -3.54296,17.61326 l 0,28.451174 -0.002,0 0,5.97461 c 10.21505,6.5599 15.91762,15.2349 15.94532,24.25586 -0.0277,9.02097 -5.73027,17.69399 -15.94532,24.2539 l 0,16.6074 c -7.9e-4,17.6118 -19.03718,31.8886 -42.51953,31.8887 z"
         id="path6095"
         inkscape:connector-curvature="0" />
    </g>
    <g
       transform="matrix(-0.96592583,0.25881904,-0.25881904,-0.96592583,1567.4024,870.81303)"
       id="g6097">
      <path
         style="fill:none;fill-opacity:1;stroke:#006600;stroke-width:0.70866144;stroke-linejoin:miter;stroke-miterlimit:4;stroke-dasharray:none;stroke-dashoffset:0;stroke-opacity:1"
         d="m 726.37796,857.4319 c -23.48236,6e-5 -42.51873,14.27691 -42.51953,31.88867 l 0,16.57618 c -10.22725,6.56758 -15.93077,15.25329 -15.94531,24.28515 0.0145,9.03185 5.71806,17.71931 15.94531,24.28711 l 0,5.94336 0,10.63281 0,17.75196 a 46.062996,46.062996 0 0 0 -3.54297,17.67966 46.062996,46.062996 0 0 0 46.0625,46.0625 46.062996,46.062996 0 0 0 46.06445,-46.0625 46.062996,46.062996 0 0 0 -3.54296,-17.61326 l 0,-28.45117 -0.002,0 0,-5.97461 c 10.21505,-6.5599 15.91762,-15.2349 15.94532,-24.25586 -0.0277,-9.02097 -5.73027,-17.69399 -15.94532,-24.25391 l 0,-16.60742 c -7.9e-4,-17.61176 -19.03718,-31.88861 -42.51953,-31.88867 z"
         id="path6099"
         inkscape:connector-curvature="0" />
      <path
         inkscape:connector-curvature="0"
         id="path6101"
         d="m 726.37796,219.73332 c -23.48236,-1e-4 -42.51873,-14.2769 -42.51953,-31.8887 l 0,-16.5761 c -10.22725,-6.56763 -15.93077,-15.25334 -15.94531,-24.2852 0.0145,-9.03185 5.71806,-17.71931 15.94531,-24.28711 l 0,-5.94336 0,-10.63281 0,-17.751964 a 46.062996,46.062996 0 0 1 -3.54297,-17.67966 46.062996,46.062996 0 0 1 46.0625,-46.0625 46.062996,46.062996 0 0 1 46.06445,46.0625 46.062996,46.062996 0 0 1 -3.54296,17.61326 l 0,28.451174 -0.002,0 0,5.97461 c 10.21505,6.5599 15.91762,15.2349 15.94532,24.25586 -0.0277,9.02097 -5.73027,17.69399 -15.94532,24.2539 l 0,16.6074 c -7.9e-4,17.6118 -19.03718,31.8886 -42.51953,31.8887 z"
         style="fill:none;fill-opacity:1;stroke:#006600;stroke-width:0.70866144;stroke-linejoin:miter;stroke-miterlimit:4;stroke-dasharray:none;stroke-dashoffset:0;stroke-opacity:1" />
    </g>
    <g
       id="g8622">
      <path
         inkscape:connector-curvature="0"
         id="rect8270"
         d="m 747.40138,831.82391 -21.0216,5.63197 -21.02587,-5.63387 -2.93497,10.95346 23.95949,6.41992 23.9585,-6.42019 -2.93555,-10.95129 z"
         style="fill:none;fill-opacity:1;stroke:#006600;stroke-width:0.70866144;stroke-linejoin:miter;stroke-miterlimit:4;stroke-dasharray:none;stroke-dashoffset:0;stroke-opacity:1" />
      <path
         style="fill:none;fill-opacity:1;stroke:#006600;stroke-width:0.70866144;stroke-linejoin:miter;stroke-miterlimit:4;stroke-dasharray:none;stroke-dashoffset:0;stroke-opacity:1"
         d="m 747.40138,245.34133 -21.0216,-5.63197 -21.02587,5.63387 -2.93497,-10.95346 23.95949,-6.41992 23.9585,6.42019 -2.93555,10.95129 z"
         id="path8620"
         inkscape:connector-curvature="0" />
    </g>
    <g
       id="g8626"
       transform="matrix(0.8660254,0.5,-0.5,0.8660254,366.6075,-291.03258)">
      <path
         style="fill:none;fill-opacity:1;stroke:#006600;stroke-width:0.70866144;stroke-linejoin:miter;stroke-miterlimit:4;stroke-dasharray:none;stroke-dashoffset:0;stroke-opacity:1"
         d="m 747.40138,831.82391 -21.0216,5.63197 -21.02587,-5.63387 -2.93497,10.95346 23.95949,6.41992 23.9585,-6.42019 -2.93555,-10.95129 z"
         id="path8628"
         inkscape:connector-curvature="0" />
      <path
         inkscape:connector-curvature="0"
         id="path8630"
         d="m 747.40138,245.34133 -21.0216,-5.63197 -21.02587,5.63387 -2.93497,-10.95346 23.95949,-6.41992 23.9585,6.42019 -2.93555,10.95129 z"
         style="fill:none;fill-opacity:1;stroke:#006600;stroke-width:0.70866144;stroke-linejoin:miter;stroke-miterlimit:4;stroke-dasharray:none;stroke-dashoffset:0;stroke-opacity:1" />
    </g>
    <g
       transform="matrix(0.5,0.8660254,-0.8660254,0.5,829.61513,-359.77042)"
       id="g8632">
      <path
         inkscape:connector-curvature="0"
         id="path8634"
         d="m 747.40138,831.82391 -21.0216,5.63197 -21.02587,-5.63387 -2.93497,10.95346 23.95949,6.41992 23.9585,-6.42019 -2.93555,-10.95129 z"
         style="fill:none;fill-opacity:1;stroke:#006600;stroke-width:0.70866144;stroke-linejoin:miter;stroke-miterlimit:4;stroke-dasharray:none;stroke-dashoffset:0;stroke-opacity:1" />
      <path
         style="fill:none;fill-opacity:1;stroke:#006600;stroke-width:0.70866144;stroke-linejoin:miter;stroke-miterlimit:4;stroke-dasharray:none;stroke-dashoffset:0;stroke-opacity:1"
         d="m 747.40138,245.34133 -21.0216,-5.63197 -21.02587,5.63387 -2.93497,-10.95346 23.95949,-6.41992 23.9585,6.42019 -2.93555,10.95129 z"
         id="path8636"
         inkscape:connector-curvature="0" />
    </g>
    <g
       id="g8638"
       transform="matrix(0,1,-1,0,1264.9604,-187.79525)">
      <path
         style="fill:none;fill-opacity:1;stroke:#006600;stroke-width:0.70866144;stroke-linejoin:miter;stroke-miterlimit:4;stroke-dasharray:none;stroke-dashoffset:0;stroke-opacity:1"
         d="m 747.40138,831.82391 -21.0216,5.63197 -21.02587,-5.63387 -2.93497,10.95346 23.95949,6.41992 23.9585,-6.42019 -2.93555,-10.95129 z"
         id="path8640"
         inkscape:connector-curvature="0" />
      <path
         inkscape:connector-curvature="0"
         id="path8642"
         d="m 747.40138,245.34133 -21.0216,-5.63197 -21.02587,5.63387 -2.93497,-10.95346 23.95949,-6.41992 23.9585,6.42019 -2.93555,10.95129 z"
         style="fill:none;fill-opacity:1;stroke:#006600;stroke-width:0.70866144;stroke-linejoin:miter;stroke-miterlimit:4;stroke-dasharray:none;stroke-dashoffset:0;stroke-opacity:1" />
    </g>
    <g
       transform="matrix(-0.5,0.8660254,-0.8660254,-0.5,1555.993,178.81225)"
       id="g8644">
      <path
         inkscape:connector-curvature="0"
         id="path8646"
         d="m 747.40138,831.82391 -21.0216,5.63197 -21.02587,-5.63387 -2.93497,10.95346 23.95949,6.41992 23.9585,-6.42019 -2.93555,-10.95129 z"
         style="fill:none;fill-opacity:1;stroke:#006600;stroke-width:0.70866144;stroke-linejoin:miter;stroke-miterlimit:4;stroke-dasharray:none;stroke-dashoffset:0;stroke-opacity:1" />
      <path
         style="fill:none;fill-opacity:1;stroke:#006600;stroke-width:0.70866144;stroke-linejoin:miter;stroke-miterlimit:4;stroke-dasharray:none;stroke-dashoffset:0;stroke-opacity:1"
         d="m 747.40138,245.34133 -21.0216,-5.63197 -21.02587,5.63387 -2.93497,-10.95346 23.95949,-6.41992 23.9585,6.42019 -2.93555,10.95129 z"
         id="path8648"
         inkscape:connector-curvature="0" />
    </g>
    <g
       id="g8650"
       transform="matrix(-0.8660254,0.5,-0.5,-0.8660254,1624.7308,641.81988)">
      <path
         style="fill:none;fill-opacity:1;stroke:#006600;stroke-width:0.70866144;stroke-linejoin:miter;stroke-miterlimit:4;stroke-dasharray:none;stroke-dashoffset:0;stroke-opacity:1"
         d="m 747.40138,831.82391 -21.0216,5.63197 -21.02587,-5.63387 -2.93497,10.95346 23.95949,6.41992 23.9585,-6.42019 -2.93555,-10.95129 z"
         id="path8652"
         inkscape:connector-curvature="0" />
      <path
         inkscape:connector-curvature="0"
         id="path8654"
         d="m 747.40138,245.34133 -21.0216,-5.63197 -21.02587,5.63387 -2.93497,-10.95346 23.95949,-6.41992 23.9585,6.42019 -2.93555,10.95129 z"
         style="fill:none;fill-opacity:1;stroke:#006600;stroke-width:0.70866144;stroke-linejoin:miter;stroke-miterlimit:4;stroke-dasharray:none;stroke-dashoffset:0;stroke-opacity:1" />
    </g>
    <rect
       style="fill:none;fill-opacity:1;stroke:#006600;stroke-width:0.70866144;stroke-linejoin:miter;stroke-miterlimit:4;stroke-dasharray:none;stroke-dashoffset:0;stroke-opacity:1"
       id="rect9386"
       width="60.236221"
       height="31.889763"
       x="696.25989"
       y="312.69678"
       rx="1.55022e-14"
       ry="1.55022e-14" />
    <path
       inkscape:connector-curvature="0"
       style="fill:none;fill-opacity:1;stroke:#006600;stroke-width:0.70866144;stroke-linejoin:miter;stroke-miterlimit:4;stroke-dasharray:none;stroke-dashoffset:0;stroke-opacity:1"
       d="m 687.9329,328.64172 a 5.4921222,5.4921222 0 0 1 -5.49212,5.49204 5.4921222,5.4921222 0 0 1 -5.49212,-5.49204 5.4921222,5.4921222 0 0 1 5.49212,-5.49214 5.4921222,5.4921222 0 0 1 5.49212,5.49214 z"
       id="path4155" />
    <path
       inkscape:connector-curvature="0"
       style="fill:none;fill-opacity:1;stroke:#006600;stroke-width:0.70866144;stroke-linejoin:miter;stroke-miterlimit:4;stroke-dasharray:none;stroke-dashoffset:0;stroke-opacity:1"
       d="m 775.80728,328.64172 a 5.4921222,5.4921222 0 0 1 -5.49213,5.49204 5.4921222,5.4921222 0 0 1 -5.49212,-5.49204 5.4921222,5.4921222 0 0 1 5.49212,-5.49214 5.4921222,5.4921222 0 0 1 5.49213,5.49214 z"
       id="circle4157" />
    <g
       id="g6142"
       transform="matrix(0.70710678,-0.70710678,0.70710678,0.70710678,-138.01829,800.40737)">
      <g
         id="g6132">
        <path
           style="fill:none;fill-opacity:1;stroke:#006600;stroke-width:1.0629921;stroke-linejoin:miter;stroke-miterlimit:4;stroke-dasharray:none;stroke-dashoffset:0;stroke-opacity:1"
           d="m 613.87891,391.88867 a 9.3903245,9.3903245 0 0 0 -9.39063,9.39063 9.3903245,9.3903245 0 0 0 9.39063,9.39062 l 35.43164,0 a 9.3903245,9.3903245 0 0 0 9.39062,-9.39062 9.3903245,9.3903245 0 0 0 -9.39062,-9.39063 9.3903245,9.3903245 0 0 0 -0.0547,0.002 l -35.33789,0 a 9.3903245,9.3903245 0 0 0 -0.0391,-0.002 z"
           transform="translate(0,24.803093)"
           id="path5093"
           inkscape:connector-curvature="0" />
        <path
           id="path6130"
           d="m 943.40647,416.69176 a 9.3903245,9.3903245 0 0 0 -9.39063,9.39063 9.3903245,9.3903245 0 0 0 9.39063,9.39062 l 35.43164,0 a 9.3903245,9.3903245 0 0 0 9.39062,-9.39062 9.3903245,9.3903245 0 0 0 -9.39062,-9.39063 9.3903245,9.3903245 0 0 0 -0.0547,0.002 l -35.33789,0 a 9.3903245,9.3903245 0 0 0 -0.0391,-0.002 z"
           style="fill:none;fill-opacity:1;stroke:#006600;stroke-width:1.0629921;stroke-linejoin:miter;stroke-miterlimit:4;stroke-dasharray:none;stroke-dashoffset:0;stroke-opacity:1"
           inkscape:connector-curvature="0" />
      </g>
      <g
         transform="matrix(0,-1,1,0,370.27612,1222.4409)"
         id="g6136">
        <path
           inkscape:connector-curvature="0"
           id="path6138"
           transform="translate(0,24.803093)"
           d="m 613.87891,391.88867 a 9.3903245,9.3903245 0 0 0 -9.39063,9.39063 9.3903245,9.3903245 0 0 0 9.39063,9.39062 l 35.43164,0 a 9.3903245,9.3903245 0 0 0 9.39062,-9.39062 9.3903245,9.3903245 0 0 0 -9.39062,-9.39063 9.3903245,9.3903245 0 0 0 -0.0547,0.002 l -35.33789,0 a 9.3903245,9.3903245 0 0 0 -0.0391,-0.002 z"
           style="fill:none;fill-opacity:1;stroke:#006600;stroke-width:1.0629921;stroke-linejoin:miter;stroke-miterlimit:4;stroke-dasharray:none;stroke-dashoffset:0;stroke-opacity:1" />
        <path
           inkscape:connector-curvature="0"
           style="fill:none;fill-opacity:1;stroke:#006600;stroke-width:1.0629921;stroke-linejoin:miter;stroke-miterlimit:4;stroke-dasharray:none;stroke-dashoffset:0;stroke-opacity:1"
           d="m 943.40647,416.69176 a 9.3903245,9.3903245 0 0 0 -9.39063,9.39063 9.3903245,9.3903245 0 0 0 9.39063,9.39062 l 35.43164,0 a 9.3903245,9.3903245 0 0 0 9.39062,-9.39062 9.3903245,9.3903245 0 0 0 -9.39062,-9.39063 9.3903245,9.3903245 0 0 0 -0.0547,0.002 l -35.33789,0 a 9.3903245,9.3903245 0 0 0 -0.0391,-0.002 z"
           id="path6140" />
      </g>
    </g>
    <g
       id="g6156"
       transform="translate(17.362236,0)">
      <rect
         transform="matrix(0,1,-1,0,0,0)"
         ry="1.5502199e-14"
         rx="1.55022e-14"
         y="-567.63776"
         x="609.44867"
         height="36.141724"
         width="11.338583"
         id="rect9399"
         style="fill:none;fill-opacity:1;stroke:#006600;stroke-width:0.70866144;stroke-linejoin:miter;stroke-miterlimit:4;stroke-dasharray:none;stroke-dashoffset:0;stroke-opacity:1" />
      <rect
         style="fill:none;fill-opacity:1;stroke:#006600;stroke-width:0.70866144;stroke-linejoin:miter;stroke-miterlimit:4;stroke-dasharray:none;stroke-dashoffset:0;stroke-opacity:1"
         id="rect6154"
         width="11.338583"
         height="36.141724"
         x="609.44867"
         y="-886.5354"
         rx="1.55022e-14"
         ry="1.5502199e-14"
         transform="matrix(0,1,-1,0,0,0)" />
    </g>
    <path
       style="fill:none;fill-opacity:1;stroke:#006600;stroke-width:0.70866144;stroke-linejoin:miter;stroke-miterlimit:4;stroke-dasharray:none;stroke-dashoffset:0;stroke-opacity:1"
       d="m 765.7375,528.03623 a 40.748028,40.748028 0 0 1 -28.8132,49.90595 40.748028,40.748028 0 0 1 -49.90594,-28.81321 40.748028,40.748028 0 0 1 28.8132,-49.90594 40.748028,40.748028 0 0 1 49.90594,28.8132 z"
       id="path9384"
       inkscape:connector-curvature="0" />
    <g
       transform="translate(7.185173e-7,-5.6076044e-6)"
       id="g5462">
      <path
         id="path5404"
         d="m 661.00396,538.58264 a 5.4921207,5.4921217 0 0 1 -5.49212,5.49212 5.4921207,5.4921217 0 0 1 -5.49212,-5.49212 5.4921207,5.4921217 0 0 1 5.49212,-5.49212 5.4921207,5.4921217 0 0 1 5.49212,5.49212 z"
         style="fill:none;fill-opacity:1;stroke:#008000;stroke-width:0.70866144;stroke-linejoin:miter;stroke-miterlimit:4;stroke-dasharray:none;stroke-dashoffset:0;stroke-opacity:1"
         inkscape:connector-curvature="0" />
      <path
         id="ellipse5406"
         d="m 802.7362,538.58264 a 5.4921207,5.4921217 0 0 1 -5.49212,5.49212 5.4921207,5.4921217 0 0 1 -5.49212,-5.49212 5.4921207,5.4921217 0 0 1 5.49212,-5.49212 5.4921207,5.4921217 0 0 1 5.49212,5.49212 z"
         style="fill:none;fill-opacity:1;stroke:#008000;stroke-width:0.70866144;stroke-linejoin:miter;stroke-miterlimit:4;stroke-dasharray:none;stroke-dashoffset:0;stroke-opacity:1"
         inkscape:connector-curvature="0" />
    </g>
  </g>
  <g
     inkscape:groupmode="layer"
     id="layer3"
     inkscape:label="Etch"
     sodipodi:insensitive="true">
    <g
       transform="matrix(-1.0086982,0.14176329,-0.13663023,-0.97217463,1580.0658,551.42165)"
       style="font-style:normal;font-variant:normal;font-weight:bold;font-stretch:normal;font-size:26.45509338px;line-height:125%;font-family:'DIN Alternate';-inkscape-font-specification:'DIN Alternate Bold';text-align:center;letter-spacing:0px;word-spacing:0px;text-anchor:middle;fill:none;fill-opacity:1;stroke:#ff9933;stroke-width:1.0629921;stroke-linecap:butt;stroke-linejoin:miter;stroke-miterlimit:4;stroke-dasharray:none;stroke-opacity:1"
       id="text5957">
      <path
         d="m 826.21272,658.96713 0,15.97898 2.69976,0 0,-18.83376 -2.69976,0 -2.67393,1.95055 0,2.86769 0,0 2.67393,-1.96346 0,0 z"
         style="stroke:#ff9933;stroke-width:1.0629921"
         id="path7172"
         inkscape:connector-curvature="0" />
    </g>
    <g
       transform="matrix(1.0086982,-0.14176329,0.13663023,0.97217463,1629.3791,902.30408)"
       style="font-style:normal;font-variant:normal;font-weight:bold;font-stretch:normal;font-size:26.45509338px;line-height:125%;font-family:'DIN Alternate';-inkscape-font-specification:'DIN Alternate Bold';text-align:center;letter-spacing:0px;word-spacing:0px;text-anchor:middle;fill:none;fill-opacity:1;stroke:#ff9933;stroke-width:1.0629921;stroke-linecap:butt;stroke-linejoin:miter;stroke-miterlimit:4;stroke-dasharray:none;stroke-opacity:1"
       id="text5963">
      <path
         d="m -831.43788,-18.13724 q -0.0258,2.712681 1.26591,3.965681 1.29176,1.291752 3.12605,1.265917 1.66636,0.02584 3.59107,-0.581288 l 0,0 0,1.769701 q -0.0775,2.8547731 -2.64809,2.8806082 -1.82138,0 -2.45433,-1.5759382 l -2.77727,0 q 0.42628,2.0538866 1.89887,3.1389588 1.45968,1.1109073 3.33273,1.1367423 2.19598,-0.025835 3.73316,-1.4209279 1.56302,-1.4080103 1.61469,-4.0044332 l 0,-8.305969 q -0.0517,-2.60934 -1.61469,-4.017351 -1.53718,-1.395093 -3.73316,-1.395093 -2.1314,0 -3.66858,1.395093 -1.64053,1.408011 -1.66636,4.017351 l 0,1.730948 z m 2.69976,-1.56302 q 0.0517,-2.828938 2.63518,-2.880609 2.57058,0.05167 2.64809,2.880609 l 0,1.537185 q -0.0775,2.854774 -2.64809,2.880609 -2.58351,-0.02584 -2.63518,-2.880609 l 0,-1.537185 z"
         style="stroke:#ff9933;stroke-width:1.0629921"
         id="path7194"
         inkscape:connector-curvature="0" />
    </g>
    <g
       transform="matrix(-0.94443995,-0.38157851,0.36776207,-0.91024305,1671.0898,562.59798)"
       style="font-style:normal;font-variant:normal;font-weight:bold;font-stretch:normal;font-size:26.45509338px;line-height:125%;font-family:'DIN Alternate';-inkscape-font-specification:'DIN Alternate Bold';text-align:center;letter-spacing:0px;word-spacing:0px;text-anchor:middle;fill:none;fill-opacity:1;stroke:#ff9933;stroke-width:1.0629921;stroke-linecap:butt;stroke-linejoin:miter;stroke-miterlimit:4;stroke-dasharray:none;stroke-opacity:1"
       id="text7089">
      <path
         d="m 875.05107,194.89943 q 0.0258,2.59643 1.66636,4.00444 1.53719,1.39509 3.66858,1.42092 2.19598,-0.0258 3.73316,-1.42092 1.56302,-1.40801 1.61469,-4.00444 l 0,-1.71803 q 0.0258,-2.7256 -1.24008,-3.99151 -1.29175,-1.24009 -3.15187,-1.24009 -1.66637,-0.0258 -3.59108,0.58129 l 0,0 0,-1.7697 q 0.0517,-2.82894 2.63518,-2.88061 1.83429,0.0258 2.46725,1.57594 l 2.77726,0 q -0.40044,-2.07972 -1.8472,-3.19063 -1.48552,-1.08507 -3.39731,-1.08507 -2.13139,0 -3.66858,1.39509 -1.64052,1.40801 -1.66636,4.01735 l 0,8.30597 z m 2.69976,-1.69219 q 0.0517,-2.82894 2.63518,-2.88061 2.57059,0.0517 2.64809,2.88061 l 0,1.53718 q -0.0775,2.85478 -2.64809,2.88061 -2.58351,-0.0258 -2.63518,-2.88061 l 0,-1.53718 z"
         style="stroke:#ff9933;stroke-width:1.0629921"
         id="path7211"
         inkscape:connector-curvature="0" />
    </g>
    <g
       transform="matrix(0.94443995,0.38157851,-0.36776207,0.91024305,1538.3551,891.1277)"
       style="font-style:normal;font-variant:normal;font-weight:bold;font-stretch:normal;font-size:26.45509338px;line-height:125%;font-family:'DIN Alternate';-inkscape-font-specification:'DIN Alternate Bold';text-align:center;letter-spacing:0px;word-spacing:0px;text-anchor:middle;fill:none;fill-opacity:1;stroke:#ff9933;stroke-width:1.0629921;stroke-linecap:butt;stroke-linejoin:miter;stroke-miterlimit:4;stroke-dasharray:none;stroke-opacity:1"
       id="text7093">
      <path
         d="m -884.08691,459.82969 2.54476,0 q 0.47794,-0.86547 1.08507,-1.21424 0.60712,-0.33586 1.34342,-0.33586 0.82672,0 1.38218,0.23252 0.55545,0.28418 0.83963,0.76213 0.52962,1.00757 0.50379,2.62226 0,0.65879 -0.0258,1.35634 -0.0517,0.71046 -0.28418,1.31759 -0.2196,0.60712 -0.77505,0.98173 -0.58129,0.38752 -1.55011,0.38752 -2.26056,-0.0258 -2.69976,-2.19598 l -2.69976,0 q 0.38752,2.59643 2.00221,3.759 1.58886,1.13675 3.50065,1.13675 1.42093,-0.0258 2.45433,-0.6588 1.05924,-0.60712 1.61469,-1.34342 0.63296,-0.74922 0.90423,-1.71803 0.25835,-0.98173 0.25835,-2.81602 0,-1.18841 -0.0775,-2.00222 -0.0775,-0.80088 -0.25835,-1.35634 -0.34878,-1.02048 -1.13675,-1.79553 -0.52962,-0.58129 -1.38217,-0.98174 -0.90423,-0.36169 -1.9893,-0.38752 -1.6922,0 -3.00978,1.0334 l 0,0 0,-4.26278 7.49216,0 0,-2.69977 -10.03692,0 0,10.17901 z"
         style="stroke:#ff9933;stroke-width:1.0629921"
         id="path7191"
         inkscape:connector-curvature="0" />
    </g>
    <g
       transform="matrix(-0.62711974,-0.80267666,0.77361281,-0.60441256,1744.3306,617.78894)"
       style="font-style:normal;font-variant:normal;font-weight:bold;font-stretch:normal;font-size:26.45509338px;line-height:125%;font-family:'DIN Alternate';-inkscape-font-specification:'DIN Alternate Bold';text-align:center;letter-spacing:0px;word-spacing:0px;text-anchor:middle;fill:none;fill-opacity:1;stroke:#ff9933;stroke-width:1.0629921;stroke-linecap:butt;stroke-linejoin:miter;stroke-miterlimit:4;stroke-dasharray:none;stroke-opacity:1"
       id="text7097">
      <path
         d="m 689.708,-253.75661 0,15.97898 2.69976,0 0,-18.83376 -2.69976,0 -2.67393,1.95055 0,2.86769 0,0 2.67393,-1.96346 0,0 z"
         style="stroke:#ff9933;stroke-width:1.0629921"
         id="path7206"
         inkscape:connector-curvature="0" />
      <path
         d="m 706.28119,-243.20299 q -0.0775,2.85477 -2.6481,2.8806 -2.5835,-0.0258 -2.63517,-2.8806 l 0,-7.98304 q 0.0517,-2.82893 2.63517,-2.8806 2.57059,0.0517 2.6481,2.8806 l 0,7.98304 z m -7.98303,0.15501 q 0.0258,2.59642 1.66636,4.00443 1.53718,1.39509 3.66857,1.42093 2.19598,-0.0258 3.73317,-1.42093 1.56302,-1.40801 1.61469,-4.00443 l 0,-8.30597 q -0.0517,-2.60934 -1.61469,-4.01735 -1.53719,-1.3951 -3.73317,-1.3951 -2.13139,0 -3.66857,1.3951 -1.64053,1.40801 -1.66636,4.01735 l 0,8.30597 z"
         style="stroke:#ff9933;stroke-width:1.0629921"
         id="path7208"
         inkscape:connector-curvature="0" />
    </g>
    <g
       transform="matrix(0.62711974,0.80267666,-0.77361281,0.60441256,1465.1143,835.93671)"
       style="font-style:normal;font-variant:normal;font-weight:bold;font-stretch:normal;font-size:26.45509338px;line-height:125%;font-family:'DIN Alternate';-inkscape-font-specification:'DIN Alternate Bold';text-align:center;letter-spacing:0px;word-spacing:0px;text-anchor:middle;fill:none;fill-opacity:1;stroke:#ff9933;stroke-width:1.0629921;stroke-linecap:butt;stroke-linejoin:miter;stroke-miterlimit:4;stroke-dasharray:none;stroke-opacity:1"
       id="text7101">
      <path
         d="m -703.52332,890.45284 0,15.97898 2.69976,0 0,-18.83375 -2.69976,0 -2.67393,1.95055 0,2.86769 0,0 2.67393,-1.96347 0,0 z"
         style="stroke:#ff9933;stroke-width:1.0629921"
         id="path7186"
         inkscape:connector-curvature="0" />
      <path
         d="m -695.08818,906.43182 10.73447,0 0,-2.69976 -7.19507,0 6.05832,-7.5955 q 1.13675,-1.44677 1.13675,-3.30689 -0.0258,-2.32516 -1.56302,-3.83651 -1.51135,-1.52426 -3.93985,-1.5501 -2.17014,0.0258 -3.65566,1.52427 -1.4726,1.53718 -1.57594,3.88817 l 2.68685,0 q 0.14209,-1.29175 0.90422,-2.00221 0.7363,-0.71047 1.84721,-0.71047 1.253,0.0258 1.93763,0.81381 0.65879,0.78797 0.65879,1.8472 0,0.40045 -0.10334,0.85256 -0.15501,0.47795 -0.58129,1.0334 l -7.35007,9.19728 0,2.54475 z"
         style="stroke:#ff9933;stroke-width:1.0629921"
         id="path7188"
         inkscape:connector-curvature="0" />
    </g>
    <g
       transform="matrix(-0.14176329,-1.0086982,0.97217463,-0.13663023,1780.1637,702.20618)"
       style="font-style:normal;font-variant:normal;font-weight:bold;font-stretch:normal;font-size:26.45509338px;line-height:125%;font-family:'DIN Alternate';-inkscape-font-specification:'DIN Alternate Bold';text-align:center;letter-spacing:0px;word-spacing:0px;text-anchor:middle;fill:none;fill-opacity:1;stroke:#ff9933;stroke-width:1.0629921;stroke-linecap:butt;stroke-linejoin:miter;stroke-miterlimit:4;stroke-dasharray:none;stroke-opacity:1"
       id="text7105">
      <path
         d="m 326.45459,-530.06111 1.13674,0 q 1.253,0 2.0668,0.76213 0.82672,0.78797 0.85256,2.22182 -0.0258,1.40801 -0.85256,2.17014 -0.8138,0.81381 -2.00222,0.81381 -1.1109,0 -1.78261,-0.60713 -0.6588,-0.58129 -1.02049,-1.52427 l -2.69976,0 q 0.43919,2.35099 1.92471,3.59108 1.48552,1.24008 3.41023,1.24008 2.49308,-0.0258 4.08194,-1.58886 1.61469,-1.52427 1.64052,-4.17236 0,-1.18841 -0.50378,-2.27348 -0.52962,-1.08508 -1.71803,-1.86013 1.16257,-0.78797 1.61469,-1.79553 0.38752,-1.00757 0.38752,-2.09264 -0.0258,-2.14431 -1.47259,-3.72025 -1.51136,-1.61469 -4.08194,-1.64053 -2.02805,0.0258 -3.48774,1.44677 -1.48551,1.43384 -1.69219,3.52648 l 2.69976,0 q 0.25835,-1.16258 1.00757,-1.71803 0.71046,-0.55545 1.57594,-0.55545 1.20133,0.0258 1.96346,0.76213 0.76214,0.76214 0.78797,1.95055 0,1.17549 -0.76213,1.91179 -0.76214,0.76214 -2.14431,0.76214 l -0.93006,0 0,2.38974 z"
         style="stroke:#ff9933;stroke-width:1.0629921"
         id="path7203"
         inkscape:connector-curvature="0" />
    </g>
    <g
       transform="matrix(0.14176329,1.0086982,-0.97217463,0.13663023,1429.2812,751.5195)"
       style="font-style:normal;font-variant:normal;font-weight:bold;font-stretch:normal;font-size:26.45509338px;line-height:125%;font-family:'DIN Alternate';-inkscape-font-specification:'DIN Alternate Bold';text-align:center;letter-spacing:0px;word-spacing:0px;text-anchor:middle;fill:none;fill-opacity:1;stroke:#ff9933;stroke-width:1.0629921;stroke-linecap:butt;stroke-linejoin:miter;stroke-miterlimit:4;stroke-dasharray:none;stroke-opacity:1"
       id="text7109">
      <path
         d="m -332.84233,1187.3995 7.85386,0 0,2.8031 2.69976,0 0,-2.8031 1.49843,0 0,-2.5447 -1.49843,0 0,-5.4125 -2.69976,0 0,5.4125 -4.92158,0 6.36834,-13.4859 -3.00978,0 -6.29084,13.4859 0,2.5447 z"
         style="stroke:#ff9933;stroke-width:1.0629921"
         id="path7183"
         inkscape:connector-curvature="0" />
    </g>
    <g
       transform="matrix(0.38157851,-0.94443995,0.91024304,0.36776206,1768.9873,793.23017)"
       style="font-style:normal;font-variant:normal;font-weight:bold;font-stretch:normal;font-size:26.45509338px;line-height:125%;font-family:'DIN Alternate';-inkscape-font-specification:'DIN Alternate Bold';text-align:center;letter-spacing:0px;word-spacing:0px;text-anchor:middle;fill:none;fill-opacity:1;stroke:#ff9933;stroke-width:1.0629921;stroke-linecap:butt;stroke-linejoin:miter;stroke-miterlimit:4;stroke-dasharray:none;stroke-opacity:1"
       id="text7113">
      <path
         d="m -131.27571,-590.60826 q 0.0258,-1.34342 0.83964,-2.02805 0.80089,-0.65879 1.84721,-0.65879 1.08507,0 1.88596,0.65879 0.78797,0.68463 0.8138,2.02805 -0.0258,1.30467 -0.8138,1.9893 -0.80089,0.71046 -1.88596,0.71046 -1.04632,0 -1.84721,-0.71046 -0.8138,-0.68463 -0.83964,-1.9893 l 0,0 z m -3.04853,8.09929 q 0.0258,2.54475 1.71803,4.06902 1.61469,1.56302 4.01735,1.58886 2.41558,-0.0258 4.08194,-1.58886 1.64052,-1.52427 1.66636,-4.06902 -0.0258,-2.7256 -2.22182,-4.23695 0.83964,-0.7363 1.36926,-1.69219 0.50379,-0.89131 0.50379,-2.11848 -0.0258,-2.35099 -1.53719,-3.88817 -1.49843,-1.52427 -3.86234,-1.55011 -2.32516,0.0258 -3.79775,1.55011 -1.56302,1.53718 -1.58886,3.88817 0,1.22717 0.55545,2.11848 0.47795,0.95589 1.31759,1.69219 -2.19598,1.51135 -2.22181,4.23695 l 0,0 z m 2.69976,-0.0258 q 0.0258,-1.31759 0.93006,-2.14431 0.86548,-0.81381 2.10556,-0.83964 1.27883,0.0258 2.14431,0.83964 0.87839,0.82672 0.90423,2.14431 -0.0258,1.29175 -0.90423,2.11847 -0.86548,0.86547 -2.14431,0.86547 -1.24008,0 -2.10556,-0.86547 -0.90422,-0.82672 -0.93006,-2.11847 l 0,0 z"
         style="stroke:#ff9933;stroke-width:1.0629921"
         id="path7200"
         inkscape:connector-curvature="0" />
    </g>
    <g
       transform="matrix(-0.38157851,0.94443995,-0.91024304,-0.36776206,1440.4575,660.49552)"
       style="font-style:normal;font-variant:normal;font-weight:bold;font-stretch:normal;font-size:26.45509338px;line-height:125%;font-family:'DIN Alternate';-inkscape-font-specification:'DIN Alternate Bold';text-align:center;letter-spacing:0px;word-spacing:0px;text-anchor:middle;fill:none;fill-opacity:1;stroke:#ff9933;stroke-width:1.0629921;stroke-linecap:butt;stroke-linejoin:miter;stroke-miterlimit:4;stroke-dasharray:none;stroke-opacity:1"
       id="text7117">
      <path
         d="m 122.34321,1229.6813 0,15.979 2.69976,0 0,-18.8338 -2.69976,0 -2.67393,1.9506 0,2.8677 0,0 2.67393,-1.9635 0,0 z"
         style="stroke:#ff9933;stroke-width:1.0629921"
         id="path7178"
         inkscape:connector-curvature="0" />
      <path
         d="m 135.05405,1229.6813 0,15.979 2.69977,0 0,-18.8338 -2.69977,0 -2.67392,1.9506 0,2.8677 0,0 2.67392,-1.9635 0,0 z"
         style="stroke:#ff9933;stroke-width:1.0629921"
         id="path7180"
         inkscape:connector-curvature="0" />
    </g>
    <g
       transform="matrix(0.80267666,-0.62711974,0.60441257,0.77361282,1713.7963,866.47106)"
       style="font-style:normal;font-variant:normal;font-weight:bold;font-stretch:normal;font-size:26.45509338px;line-height:125%;font-family:'DIN Alternate';-inkscape-font-specification:'DIN Alternate Bold';text-align:center;letter-spacing:0px;word-spacing:0px;text-anchor:middle;fill:none;fill-opacity:1;stroke:#ff9933;stroke-width:1.0629921;stroke-linecap:butt;stroke-linejoin:miter;stroke-miterlimit:4;stroke-dasharray:none;stroke-opacity:1"
       id="text7121">
      <path
         d="m -556.52783,-387.39117 10.73446,0 0,-2.69977 -7.19506,0 6.05832,-7.5955 q 1.13674,-1.44677 1.13674,-3.30689 -0.0258,-2.32515 -1.56302,-3.8365 -1.51135,-1.52427 -3.93984,-1.55011 -2.17015,0.0258 -3.65566,1.52427 -1.4726,1.53719 -1.57594,3.88818 l 2.68685,0 q 0.14209,-1.29176 0.90422,-2.00222 0.7363,-0.71046 1.84721,-0.71046 1.253,0.0258 1.93763,0.8138 0.65879,0.78797 0.65879,1.84721 0,0.40044 -0.10334,0.85255 -0.15501,0.47795 -0.58129,1.0334 l -7.35007,9.19728 0,2.54476 z"
         style="stroke:#ff9933;stroke-width:1.0629921"
         id="path7197"
         inkscape:connector-curvature="0" />
    </g>
    <g
       transform="matrix(-0.80267666,0.62711974,-0.60441257,-0.77361282,1495.6486,587.25466)"
       style="font-style:normal;font-variant:normal;font-weight:bold;font-stretch:normal;font-size:26.45509338px;line-height:125%;font-family:'DIN Alternate';-inkscape-font-specification:'DIN Alternate Bold';text-align:center;letter-spacing:0px;word-spacing:0px;text-anchor:middle;fill:none;fill-opacity:1;stroke:#ff9933;stroke-width:1.0629921;stroke-linecap:butt;stroke-linejoin:miter;stroke-miterlimit:4;stroke-dasharray:none;stroke-opacity:1"
       id="text7125">
      <path
         d="m 547.36282,1042.6369 2.69976,0 0,-2.7256 4.99908,0 -6.36834,16.134 3.00979,0 6.38125,-16.134 0,-2.6998 -10.72154,0 0,5.4254 z"
         style="stroke:#ff9933;stroke-width:1.0629921"
         id="path7175"
         inkscape:connector-curvature="0" />
    </g>
    <g
       transform="scale(-1,-1)"
       style="font-style:normal;font-variant:normal;font-weight:bold;font-stretch:normal;font-size:22.5px;line-height:125%;font-family:'DIN Alternate';-inkscape-font-specification:'DIN Alternate Bold';text-align:center;letter-spacing:0px;word-spacing:0px;text-anchor:middle;fill:none;fill-opacity:1;stroke:#ff9933;stroke-width:1px;stroke-linecap:butt;stroke-linejoin:miter;stroke-opacity:1"
       id="text9388">
      <path
         d="m -746.28766,-260.75278 2.16431,0 q 0.40649,-0.73608 0.92285,-1.03271 0.51636,-0.28565 1.14258,-0.28565 0.70312,0 1.17553,0.19776 0.47242,0.2417 0.71412,0.64819 0.45044,0.85693 0.42846,2.23023 0,0.5603 -0.022,1.15356 -0.0439,0.60425 -0.2417,1.12061 -0.18677,0.51635 -0.65918,0.83496 -0.49438,0.32959 -1.31836,0.32959 -1.92261,-0.022 -2.29614,-1.86768 l -2.29614,0 q 0.32959,2.20825 1.70288,3.19702 1.35132,0.9668 2.97729,0.9668 1.2085,-0.022 2.0874,-0.5603 0.90088,-0.51636 1.3733,-1.14258 0.53833,-0.63721 0.76904,-1.46118 0.21973,-0.83496 0.21973,-2.39502 0,-1.01075 -0.0659,-1.70288 -0.0659,-0.68116 -0.21973,-1.15357 -0.29663,-0.86792 -0.9668,-1.5271 -0.45044,-0.49438 -1.17553,-0.83496 -0.76905,-0.30762 -1.6919,-0.32959 -1.43921,0 -2.55981,0.87891 l 0,0 0,-3.62549 6.37207,0 0,-2.29614 -8.53638,0 0,8.65722 z"
         id="path9393"
         inkscape:connector-curvature="0" />
      <path
         d="m -731.29132,-253.39194 1.88965,0 5.29541,-16.01806 -2.5708,0 -3.64746,12.19482 -0.0439,0 -3.63647,-12.19482 -2.5708,0 5.28442,16.01806 z"
         id="path9395"
         inkscape:connector-curvature="0" />
      <path
         d="m -717.61334,-260.45615 11.38183,0 0,-1.75781 -11.38183,0 0,1.75781 z m 0,4.5044 11.38183,0 0,-1.75781 -11.38183,0 0,1.75781 z"
         id="path9397"
         inkscape:connector-curvature="0" />
    </g>
  </g>
  <g
     inkscape:groupmode="layer"
     id="layer2"
     inkscape:label="Outline"
     sodipodi:insensitive="true"
     style="display:inline">
    <circle
       r="120.47243"
       cy="-841.02264"
       cx="-140.21381"
       id="circle4266"
       style="fill:none;fill-opacity:1;stroke:#808080;stroke-width:1.0629921;stroke-linejoin:miter;stroke-miterlimit:4;stroke-dasharray:4.25196848, 8.50393697;stroke-dashoffset:0;stroke-opacity:1"
       transform="matrix(-0.25881905,0.96592583,-0.96592583,-0.25881905,0,-24.803154)" />
    <circle
       transform="matrix(0.25881905,-0.96592583,-0.96592583,-0.25881905,0,-24.803154)"
       style="fill:none;fill-opacity:1;stroke:#808080;stroke-width:1.0629921;stroke-linejoin:miter;stroke-miterlimit:4;stroke-dasharray:4.25196848, 8.50393697;stroke-dashoffset:0;stroke-opacity:1"
       id="circle4802"
       cx="-804.67462"
       cy="-841.02264"
       r="120.47243" />
    <circle
       transform="matrix(-0.70710679,0.70710678,-0.70710678,-0.70710679,0,-24.803154)"
       style="fill:none;fill-opacity:1;stroke:#808080;stroke-width:1.0629921;stroke-linejoin:miter;stroke-miterlimit:4;stroke-dasharray:4.25196848, 8.50393696;stroke-dashoffset:0;stroke-opacity:1"
       id="circle4896"
       cx="-605.2356"
       cy="-894.46216"
       r="120.47243" />
    <circle
       r="120.47243"
       cy="-876.92371"
       cx="-322.11441"
       id="circle4902"
       style="fill:none;fill-opacity:1;stroke:#808080;stroke-width:1.0629921;stroke-linejoin:miter;stroke-miterlimit:4;stroke-dasharray:4.25196848, 8.50393696;stroke-dashoffset:0;stroke-opacity:1"
       transform="matrix(0.70710679,-0.70710678,-0.70710678,-0.70710679,0,0)" />
    <circle
       r="120.47243"
       cy="-708.23132"
       cx="-1034.676"
       id="circle4910"
       style="fill:none;fill-opacity:1;stroke:#808080;stroke-width:1.0629921;stroke-linejoin:miter;stroke-miterlimit:4;stroke-dasharray:4.25196849, 8.50393699;stroke-dashoffset:0;stroke-opacity:1"
       transform="matrix(-0.96592583,0.25881904,-0.25881904,-0.96592583,0,-24.803154)" />
    <circle
       transform="matrix(0.96592583,-0.25881904,-0.25881904,-0.96592583,0,0)"
       style="fill:none;fill-opacity:1;stroke:#808080;stroke-width:1.0629921;stroke-linejoin:miter;stroke-miterlimit:4;stroke-dasharray:4.25196849, 8.50393699;stroke-dashoffset:0;stroke-opacity:1"
       id="circle4916"
       cx="96.207115"
       cy="-684.27332"
       r="120.47243" />
    <circle
       transform="matrix(-0.96592583,-0.25881905,0.25881905,-0.96592583,0,-24.803154)"
       style="fill:none;fill-opacity:1;stroke:#808080;stroke-width:1.0629921;stroke-linejoin:miter;stroke-miterlimit:4;stroke-dasharray:4.25196848, 8.50393697;stroke-dashoffset:0;stroke-opacity:1"
       id="circle4924"
       cx="-1313.4669"
       cy="-332.23038"
       r="120.47243" />
    <circle
       r="120.47243"
       cy="-332.23041"
       cx="368.57846"
       id="circle4930"
       style="fill:none;fill-opacity:1;stroke:#808080;stroke-width:1.0629921;stroke-linejoin:miter;stroke-miterlimit:4;stroke-dasharray:4.25196848, 8.50393697;stroke-dashoffset:0;stroke-opacity:1"
       transform="matrix(0.96592583,0.25881905,0.25881905,-0.96592583,0,-24.803154)" />
    <circle
       r="120.47243"
       cy="132.79132"
       cx="-1366.9064"
       id="circle4938"
       style="fill:none;fill-opacity:1;stroke:#808080;stroke-width:1.0629921;stroke-linejoin:miter;stroke-miterlimit:4;stroke-dasharray:4.25196848, 8.50393696;stroke-dashoffset:0;stroke-opacity:1"
       transform="matrix(-0.70710678,-0.70710679,0.70710679,-0.70710678,0,-24.803154)" />
    <circle
       transform="matrix(0.70710678,0.70710679,0.70710679,-0.70710678,0,-24.803154)"
       style="fill:none;fill-opacity:1;stroke:#808080;stroke-width:1.0629921;stroke-linejoin:miter;stroke-miterlimit:4;stroke-dasharray:4.25196848, 8.50393696;stroke-dashoffset:0;stroke-opacity:1"
       id="circle4944"
       cx="422.01794"
       cy="132.79135"
       r="120.47243" />
    <circle
       transform="matrix(-0.25881904,-0.96592583,0.96592583,-0.25881904,0,-24.803154)"
       style="fill:none;fill-opacity:1;stroke:#808080;stroke-width:1.0629921;stroke-linejoin:miter;stroke-miterlimit:4;stroke-dasharray:4.25196849, 8.50393699;stroke-dashoffset:0;stroke-opacity:1"
       id="circle4952"
       cx="-1180.6755"
       cy="562.23181"
       r="120.47243" />
    <circle
       r="120.47243"
       cy="562.23181"
       cx="235.78708"
       id="circle4958"
       style="fill:none;fill-opacity:1;stroke:#808080;stroke-width:1.0629921;stroke-linejoin:miter;stroke-miterlimit:4;stroke-dasharray:4.25196849, 8.50393699;stroke-dashoffset:0;stroke-opacity:1"
       transform="matrix(0.25881904,0.96592583,0.96592583,-0.25881904,0,-24.803154)" />
  </g>
</svg>
